<?xml version="1.0" encoding="UTF-8"?>
<!DOCTYPE svg  PUBLIC '-//W3C//DTD SVG 1.1//EN'  'http://www.w3.org/Graphics/SVG/1.1/DTD/svg11.dtd'>
<svg enable-background="new 0 0 2173.497 2266.751" version="1.1" viewBox="0 0 2173.497 2266.751" xml:space="preserve" xmlns="http://www.w3.org/2000/svg">
	<path d="m699.52 1544.6c-12.501 1.434-12.308 6.721-77.567 132.37 31.443-144.33-93.566-254.64-205.78-212.68-56.418 21.096-94.994 85.293-81.627 144.02 19.039 83.651 111.68 93.603 141.11 41.828 15.633-27.495 2.729-68.505-27.35-78.283s-66.295 21.169-57.845 51.648c-28.461-18.272-37.015-59.433-22.869-90.155 37.678-81.83 176.78-72.389 219.28 28.768 22.445 53.433 9.263 118.83-28.973 162.38-107.08 121.97-318.64 48.925-348.22-121.78-16.162-93.264 30.192-192.69 108.64-245.65 78.449-52.963 184.13-59.833 271.54-23.512 8.956 3.722 18.289 7.952 27.927 6.864 36.851-4.161 90.423-104.78 41.183-188.09 9.454 38.243-20.138 82.14-59.407 85.276s-76.025-38.565-65.744-76.593c5.462-20.203 23.789-37.349 44.713-37.783s41.166 19.068 38.327 39.803-31.794 33.49-47.327 19.465-1.266-46.469 19.23-42.236c-10.627-9.541-28.543-7.719-38.949 2.062-31.6 29.702 2.554 91.506 51.953 84.207 28.118-4.155 50.303-32.705 47.383-60.978-2.957-28.63-26.764-50.066-49.388-67.859-54.405-42.788-111.73-81.868-171.43-116.88 3.242 25.99-15.06 48.996-29.557 70.809s-25.673 52.031-9.697 72.787c-9.474 5.398-18.948 10.795-28.423 16.193-2.172-7.918-0.972-16.702 3.245-23.747 1.598 6.631 13.111 7.023 15.155 0.516-15.559-5.234-16.508-28.136-7.705-41.991s23.513-23.108 32.531-36.825c23.725-36.088-1.228-85.142-33.662-113.66s-73.641-49.552-94.265-87.497c-26.902-49.499-4.28-119.4 46.522-143.75-11.843 36.295-22.163 74.129-18.825 112.16s22.845 76.678 57.159 93.414c93.688-102.02 137.45-247.88 115.39-384.62-53.845 40.372-97.925 93.676-127.47 154.14 16.266-38.768 27.931-78.08 35.543-116.81 6.647-33.821 12.417-68.137 7.942-102.63-8.72-67.223-77.108-126.9-88.009-127.88 55.74 5.001 140.59 59.457 173.62 144.48 33.981 87.455 20.638 241.76-38.972 346.06-38.648 67.626-71.497 86.808-63.665 103.98 2.071 4.541 3.762 5.217 34.21 29.188 204.69-103.09 291.59-328.65 186.72-477.24-15.628-22.141-17.612-15.086-91.892 21.877-11.802-25.108-23.604-50.215-35.407-75.322 87.913-19.401 190.07 60.765 179.06 197.74-1.372 17.066-4.524 35.485 9.631 51.079-24.859 8.472-13.292 43.16-46.888 109.79 96.095-129.74 105.38-301.78 63.226-348.86-8.958-10.007-40.951-29.854-35.595-66.237 6.626-45.008 63.07-49.784 74.703-15.091 5.551 16.554-6.082 37.215-23.409 39.357-5.208 0.644-12.1-2.007-11.611-7.231 11.202 3.199 21.245-12.812 14.763-22.491-6.483-9.679-22.918-8.659-29.824 0.722-6.907 9.381-4.567 23.548 3.458 31.992 24.294 25.564 71.297-1.538 59.405-43.804-8.425-29.943-49.142-45.14-75.125-28.04-22.865 15.048-29.382 46.187-26.351 73.391-109.65-57.904-203.6-33.828-215.27-36.882-24.728-6.471-70.697-83.258-23.851-129.95 27.956-27.865 84.307-29.047 95.125 9.327 5.023 17.818-0.031 38.424-13.62 50.995-23.804 22.021-60.667 9.988-62.977-7.722 10.89 8.119 26.701 8.96 38.391 2.043 28.138-16.651-6.433-63.157-37.932-41.449-21.982 15.149-29.356 59.257 17.132 73.1 84.434 25.142 113.11-125.83 15.988-122.49-62.39 2.148-90.037 39.024-86.386 102.41 0.435 7.553 4.732 14.214 5.43 21.687-4.289-1.644-8.079-6.889-11.629-9.883-42.804-36.104-39.9-40.19-52.5-144.59-2.187-18.124-24.979-23.028-34.69-10.93-7.694 10.371-6.69 21.709-3.264 33.199 26.717 89.624 52.03 109.78 58.682 129.04-19.649-2.361-72.567-24.247-158.43 0.632-62.8 18.196-82.211 46.794-98.221 80.308-28.089 58.801-21.317 128.68 27.507 172.57 54.602 48.964 144.46 44.57 181.34-4.793 30.143-40.344 19.219-101.06-27.761-133.27-83.379-57.155-151.94 51.806-100.03 95.929 17.494 14.869 42.268 15.485 63.275-7.466 19.427-21.226 11.638-34.908 2.601-49.257 74.001-1.515 78.421 133.22-46.18 117.7-38.182-4.756-83.717-35.101-95.474-96.338-13.153-68.508 33.812-128.06 63.057-141.18 28.97-18.361 79.647-25.139 88.41-23.75 64.503 5.495 62.787 11.26 77.48 18.76 4.78 2.64 10.05 4.34 14.61 7.39 12.912 9.684 25.824 19.313 35.863 32.032 38.381 48.627 43.471 117.48 27.687 175.63-36.47 134.37-165.28 225.76-205.36 358.79-19.993 66.358-12.955 145.44 35.666 194.83 24.892 25.284 60.442 18.577 47.977-18.789-11.595-34.758-41.551-60.234-57.614-93.166-19.599-40.18-15.911-90.751 9.308-127.66-6.04 47.301 10.74 96.998 44.218 130.96 25.874 26.245 63.591 48.447 65.605 85.247 2.945 53.821-79.946 94.026-95.987 248.35-3.385 32.563-2.618 65.461-6.273 97.994-7.674 68.309-34.2 140.24-6.209 203.02 8.414 18.871 21.735 36.774 21.657 57.436-0.057 15.071-7.337 29.013-13.442 42.792-32.686 73.771-33.244 164.39 10.985 231.87 44.23 67.485 137.07 103.3 211.07 71.13 16.652-7.24 32.491-17.627 50.546-19.56 14.32-1.533 28.606 2.448 42.977 3.381 104.04 6.759 186.19-149.85 55.063-268.36 55.816-41.979 101.42-97.438 131.83-160.31 7.913-16.364 6.965-44.989-11.098-42.917zm-73.831-278.03c1.31-0.52 2.63-1.03 3.96-1.51 1.46 1.36 3.48 2.39 4.18 4.4 0.5 3.64-2.63 6.19-4.46 8.94-2.43 3.01-2.46 7.05-3.61 10.6-1.27-4.47-1.13-9.15-1.57-13.73-0.45-3.01 0.7-5.87 1.5-8.7zm-76.13-181.18c2.51-2.63 5.92-0.67 8.71 0.27 0.14 2.91 1.74 6.38-0.4 8.91-1.82 2.84-5.53 1.78-8.35 1.96-1.49-3.42-2.73-8.09 0.04-11.14zm-107.26-477.72c1.843 10.135-4.746 7.819-6.2 16.86-2.58-3.7-5.78-7.11-7.34-11.39-0.546-12.078 11.208-10.552 13.54-5.47zm-12.9 146.47c-0.55 3.54-0.61 8.18-4.07 10.23-3.16 0.41-6.56 0.11-9.39-1.42-4.55-4.47-5.22-12.92 0.06-17.14 5.63-2.45 13.85 1.69 13.4 8.33zm-41.32-60.18c2.72-3.05 5.57-6.47 9.76-7.39 4.68-1.1 10.01-1.07 14.42 1.04 21.332 14.106 2.088 40.839-14.7 34.64-12.75-1.53-17.32-19.24-9.48-28.29zm-21.51 148.19c-1.04 0.42-2.07 0.86-3.08 1.32-3.82-2.78-4.17-7.54-3.48-11.84 2.13-0.16 4.7-1.03 6.43 0.73 1.6 3.03 0.97 6.62 0.13 9.79zm-12.67-65.87c7.088-2.426 12.627 1.765 10.02 9.61-1.37 2.86-4.02 4.78-6.23 6.96-2.369-3.052-10.711-9.537-3.79-16.57zm299.6-86.9c-2.46 2.31-5.75 0.54-7.94-1.2-0.96-2.12-0.49-4.5-0.46-6.73 2.9-0.08 6.6-1.01 8.46 1.95 1.95 1.63 0.86 4.1-0.06 5.98zm-44.48-225.52c-4.985-8.471-2.052-10.705 0.65-14.77 17.792 1.711 11.857 19.675-0.65 14.77zm0.77-26.049c-4.724 0.69-6.266 0.531-11.524-3.387-67.836-50.558-137.97-35.502-142.52-36.672-4.761-1.226-10.216-9.692 5.709-10.311 39.854-1.605 83.481-1.731 132.19 27.128 2.54 1.505 27.325 19.675 27.35 19.657-3.181 2.367-7.285 3.012-11.209 3.585zm21.59 47.559c-2.92-0.65-5.83-2.39-6.71-5.42-1.48-2.86 2.28-4.97 4.42-6.12 3.16-1.87 5.47 1.89 7.56 3.68-1.02 3-1.88 6.72-5.27 7.86zm2.64-45.59c5.7-2.993 12.069 7.766 8.49 12.58-6.204 5.228-19.369-3.358-8.49-12.58zm1.54 65.45c0.84-2.94 2.22-5.75 4.1-8.16 3.05-0.74 6.17 0.26 9.22 0.54-0.19 3.71-0.97 7.35-2.54 10.72-3.84 0.53-8.95 1.36-10.78-3.1zm9.34 28.02c1.62-4.25 6.48-5.68 10.63-4.74 3.17 0.91 5.67-1.67 8.43-2.74 3.79-1.3 8.4-1.29 11.56 1.49-0.95 2.73-2 5.43-3.19 8.08-4.63 1.66-9.17-0.57-13.82-0.55-2.84 1.59-4.79 4.49-7.92 5.6-1.97-2.32-3.69-4.84-5.69-7.14zm5.78-35.8c17.402-8.583 16.258 6.793 8.74 7.9-2.77-0.54-5.2-2.08-7.74-3.2-0.32-1.58-0.66-3.14-1-4.7zm4.25 89.49c1.38-2.47 4.71-2.7 6.79-1.01 3.2 2.1 2.19 6.37 2.06 9.58-2.01 0.44-4.03 0.81-6.05 1.12-1.62-2.84-5.41-6.34-2.8-9.69zm-3.46-25.56c0.34-2.03 1.43-3.82 2.25-5.67 2.64 1.02 6.28 0.81 7.78 3.64 2.57 3.74-0.57 8.03-1.42 11.83-3.66-2.39-8-5.04-8.61-9.8zm23.2 73.84c-0.89 1.91-2.64 3.2-4.1 4.64-2.16-2.68-4.18-5.51-6.8-7.76-1.85-0.78-3.93-0.14-5.84-0.04-1.73-3-4.49-5.18-6.38-8.03-1.29-2.59 1.27-4.49 2.65-6.32 10.328 3.267 5.504 2.728 10.77 6.19 2.11 1.08 4.55 1.29 6.69 2.33 2.47 2.19 3.46 5.77 3.01 8.99zm5.92-34.77c-0.97 1.52-1.47 4.93-3.92 3.84-5.22-1.47-7.69-9.29-2.62-12.5 5.08-2.86 8.9 4.55 6.54 8.66zm-0.39-27.98c-3.43-0.41-7.72-1.4-8.68-5.28-0.53-3.08-1.73-7.48 1.58-9.38 1.05-0.95 2.62-0.33 3.78 0.06 7.821 3.229 7.842 7.605 3.32 14.6zm11.75-40.41c-1.9 0.99-3.57 2.47-5.63 3.09-3.8 0.45-6.06-3.53-6.35-6.8 0.64-1.66 1.57-3.18 2.35-4.77 1.85 0.7 3.8 1.27 5.46 2.4 1.58 1.89 2.71 4.1 4.17 6.08zm-8.95-20.05c0.15 3.16-0.72 6.24-1.78 9.19 2.372-20.793-5.723-14.228-4.98-27.61 2.72-0.25 5.46-0.36 8.2-0.35 2.97 6.31-1.83 12.36-1.44 18.77zm-2.85-50.84c0.79 2.72 3.43 5.61 1.71 8.48-1.63 1.68-4.16 3.56-6.44 1.86-3.39-1.2-4.32-4.78-4.1-8.01 2.72-1.49 5.71-2.34 8.83-2.33zm-14.81-31.04c13.365 6.052 4.627 19.238-3.39 13.75-2.44-2.96-3.21-6.79-3.82-10.47 2.18-1.48 4.44-3.22 7.21-3.28zm-7.43 41.34c0.576 3.009-7.327 7.626-9.91 5.62-3.599-1.851-7.045-7.376 1.87-11.17 3.32-0.04 7.42 1.95 8.04 5.55zm-216.28-107.99c71.096-6.819 156.57 11.731 206.72 62.531-9.433 4.172-12.01 2.441-16.619-2.33-42.247-43.74-139.94-59.483-172.99-52.001-28.934 6.551-24.924 7.008-32.39-2.81 4.81-2.51 9.81-4.82 15.28-5.39zm-158.52 992.06c0.871-8.225 6.767-16.48-6.92-14.47-3.249 2.859-7.395 12.638 3.95 16.82-2e-3 1e-3 -27.12 26.99-27.12 26.99-4.89 4.46-8 10.84-14.14 13.87 2.31-9.81 6.22-19.14 9.43-28.66 10.886-24.136 8.989-26.626 17.68-32.42 4.97-1.7 10.35-1.64 15.55-1.74 6.61-0.34 11.25 5.36 17.68 5.97-2.74 6.91-10.19 9.97-16.11 13.64zm28.6-22.19c-10.49-7.72-23.37-12.03-36.31-13.11-0.1-0.81-0.31-2.41-0.41-3.21 5.935-3.086 21.142-0.783 27.66 0.36 6.36 4.05 14.68 4.65 19.79 10.6-2.22 3.65-6.3 6.37-10.73 5.36zm27.96-11.52c-5.25-0.63-9.77-3.7-13.8-6.92-4.18-3.54-9.61-4.85-14.24-7.61-7.54-4.6-16.68-4.73-24.78-7.85 0.15-2.51 2.24-4.09 3.75-5.84 5.23 1.54 10.65 2.41 16.01 3.35 14.797 0.465 28.882 11.444 37.23 16.01 5.02 1.511-0.431 9.023-4.17 8.86zm125.64-32.02c0.09-1-1.241-25.82 16.48-46.26 3.7-2.31 7.52 3.04 6.52 6.42-3.83 8.82-10.69 16.45-12.07 26.22-4.62 14.548-1.752 13.443-10.93 13.62zm68.25-46.66c3.06-0.15 7-0.67 8.54 2.72-0.15 3.78-2.76 6.93-3.22 10.66-0.36 3.44-0.26 6.93-0.66 10.39-2.3-4.86-3.47-10.12-5.18-15.18-0.96-2.83 0.09-5.78 0.52-8.59zm-21.56-133.41c9.633-4.203 10.665 13.302 0.54 14.77-1.99-1.01-3.72-2.58-4.89-4.46-0.72-3.84 0.57-8.52 4.35-10.31zm37.62 190.77c-2.92 0.01-5.78-0.53-8.38-1.86-11.438-5.065-45.908-6.156-54.08-9.21-0.024-7.466 4.419-19.196 14.53-28.05 15.853 14.097 37.223 25.789 47.93 39.12zm-72.69-234.8c3.9-1.44 7.52 1.59 10.54 3.7 5.13 6.14 6.76 15.42 2.6 22.55-4.69 6.55-15.94 7.57-20.74 0.58-9.551-8.315-3.646-23.026 7.6-26.83zm0.87 76.91c10.544-1.964 27.24 5.687 21.47 27.56-1.34 5.81-6.54 9.51-11.07 12.85-3.88 2.85-8.86 1.08-12.77-0.73-5.38-2.38-8.32-7.81-11.45-12.47-4.336-14.492 4.366-24.144 13.82-27.21zm-7.57 86.09c1.12 3.17-0.75 6.3-2.9 8.51-11.634 11.915-18.475 53.805-18.85 54.83-3.68 0.31-7.38 0.36-11.06 0.15-0.3-2.62-0.26-5.26 0.21-7.84 0.76-3.99-0.91-8.17 0.72-12.02 2.89-7.78 2.38-16.89 7.6-23.7 5.1-8.56 10.78-16.76 15.81-25.37 3.13 1.08 7.39 1.74 8.47 5.44zm-21.71-199.35c2.99-3.22 8.04 0.33 8.12 4.07 0.11 2.38-1.65 4.26-2.76 6.23-2.674 3.477-1.806 4.638-9.04-1.35 1.16-3 1.83-6.28 3.68-8.95zm-16.7 70.96c2.31-0.28 4.57 0.43 6.81 0.91 2 4.77-0.85 9.44-4.27 12.66-1.56-1.32-3.18-2.57-4.6-4.03-1.73-3.2-0.31-7.1 2.06-9.54zm2.78 86c10.367 17.303 27.287 19.497 11.42 35.18-3.06-1.64-6.23-5.03-9.99-3.65-3.58 2.43-5.8 7.11-4.97 11.45 1.31 2.82 4.32 4.27 6.83 5.9-2.23 5.52-4.09 11.23-7.18 16.37-2.86 4.22-1.37 9.57-3.29 14.11-1.23 3.07-1.83 6.34-1.88 9.65-0.17 7-2.31 13.71-3.47 20.57-10.71 2.62-21.52 4.79-32.3 7.06-3.54 0.76-6.74 2.57-10.24 3.45-3.88 1-7.89 1.19-11.81 1.91 1.9-1.28 3.93-2.5 5.39-4.3 0.2-3.77 1.16-8.54-1.74-11.5-5.16-2.81-11.86 1.53-12.92 6.94-1.22 4.36 2.15 8.04 4.34 11.43-5.01 0.43-7.47-4.25-10.73-7.1-11.606-11.619-35.343-19.037-50.94-23.77 0.42-1.51 0.48-3.25 1.81-4.26 5.43-5.27 9.64-11.64 15.06-16.92 29.583-28.637 52.941-36.858 73.72-55.18 2.82-2.67 6.9-3.05 10.03-5.18 2.4-1.88 4.16-4.6 7.09-5.76 24.669-11.9 22.982-10.255 25.77-6.4zm-74.86-36.34c15.119 7.348 15.621 0.245 17.93-5.36 3.28 0.6 6.6 0.97 9.93 1.28 3.18-3.94 6.8-7.84 7.51-13.08 4.75 2.12 4.88 7.77 6.83 11.92 1.91 4.68 16.266 21.392 17.21 22.88-0.246 3.33 0.3 1.983-45.16 27.33-5.761-6.09-15.122-35.007-14.25-44.97zm-4.38-89.38c2.59 3.58 6.14 7.13 6.42 11.78-1.09 12.13-9.2 22.09-11.21 34.01-0.154 1.007-8.151 35.547-1.82 57.85 0.643 1.926 5.244 27.852 12.85 38.5-2.17 2.08-4.62 3.82-7.75 3.88-15.531-26.751-16.088-64.28-14.39-94.23 0.691-19.229 1.901-17.769 10.87-44.21 0.97-2.95 2.89-5.41 5.03-7.58zm-10.007-15.789c-1.042 7.141-40.441 64.227-5.67 165.64 3.453 10.07-3.861 12.175-5.923 6.978-33.967-85.613-1.109-155.81-1.67-160.53 3.412-6.367 7.415-12.471 11.13-18.667 1.884 1.514 2.482 4.197 2.133 6.588zm-103.54-256.4c5.959 8.898-3.57 40.794 55.586 93.782 20.586 18.439 15.261 34.608 20.954 52.288 3.14 9.41 2.21 19.5 4.19 29.15-25.652-8.255-48.711-27.582-64.609-48.937-26.339-35.381-21.589-53.241-26.081-74.443-1.44-6.796 6.253-45.219 9.96-51.84zm65.22 245.38c-42.086-30.208-23.498-17.145-34.57-26.31-37.264-27.241-64.935-94.103-60.64-131.01 1.73-10.96 0.75-22.45 4.98-32.91 0.19 0.354 5.766 36.617 12.09 48.42 24.855 43.245 23.306 37.619 61.55 68.48 10.291 7.596 36.231 19.629 39.59 24.45 1.78 3.91 2.66 8.19 4.83 11.94 2.12 4.12 4.76 9.35 1.98 13.8-3.285 4.859-10.388 23.927-17.28 24.17-4.18-0.14-8.41-0.29-12.53-1.03zm5.3 167.16c9.83 28.555 10.929 28.209 9.82 31.96-0.62 1.011-21.046 21.226-26.16 24.36-3.223-15.499-3.338-23.804 5.19-40.23 2.89-5.92 8.04-10.3 11.15-16.09zm-6.562-17.242c-6.055 13.401-28.836 14.758-23.37 93.018-11.691-21.151-10.459-63.099 12.742-90.756 3.23-3.816 6.108-8.119 9.191-12.085 2.761 2.249 2.904 6.578 1.437 9.823zm-18.088-29.188c3.75-4.05 8.29-7.24 13.34-9.43 0.21 2.98 0.85 6.01 0.34 9.01-7.499 11.405-56.971 47.493-31.41 138.15-0.85 5.61-5.2 9.98-9.92 12.75-2.557-7.842-5.443-15.099-6.761-23.294-6.584-40.964 5.419-96.018 34.411-127.19zm-37.76 163.5c1.94 4.25-1.77 8.1-2.77 12.1-1.39 4.93-4.09 9.36-7.54 13.13-2.83-8.79-3.02-18.41-0.51-27.29 0.33-4.39 3.57-7.59 5.48-11.33 2.35 4.21 3.46 8.96 5.34 13.39zm-17.61-30.98c0.895-1.364 1.841-2.744 3.148-3.751 0.458-0.353 3.91-1.666 3.956-1.814-6.301 20.06-16.539 30.616-13.796 57.854 0.184 1.827 5.781 40.366-3.116 37.014-6.123-2.306-7.67-73.194 9.808-89.303zm38.52 475.56c-41.36 139.16 65.305 236.98 158.31 210.21 6.221-1.79 12.184-5.389 18.739-5.14 2.541 3.91 5.631 7.76 6.511 12.47-2.262 5.86-9.902 9.104-15.187 11.461-75.589 33.714-212.62-27.17-195.56-168.95 7.059-58.683 22.313-65.525 26.847-72.572 1.573 4.702 1.82 7.534 0.339 12.517zm-27.032 207.05c-22.641-30.224-36.348-72.565-36.348-84.293-0.1-7.15-1.79-14.11-2.92-21.12-11.089-64.296 12.3-130.9 22.49-143.36 4.01-4.78 6.52-11.42 13.08-13.28 13.297 19.503 15.761 18.955 16.53 24.69-0.95 3.93-3.95 6.86-5.67 10.45-41.764 90.099-24.922 170.57 19.643 217.12 33.983 35.491 82.619 55.462 130.87 54.664 27.495-0.454 38.819-9.102 43.429-11.239 2.514-1.165 12.244-2.291 13.577-3.924-31.038 38.013-151.06 55.224-214.68-29.704zm375.72-134.36c27.262 54.022 4.658 177.22-99.641 163.3-93.031-12.416-74.442-126.71-20.284-122.86 11.32 0.804 22.252 8.364 25.703 19.175-14.112-7.725-33.438-4.128-43.825 8.158s-10.719 31.941-0.754 44.571c12.981 16.452 40.397 20.94 57.099 7.898 25.254-19.718 19.37-75.433-12.123-93.437-30.315-17.33-76.273 0.054-85.664 33.926-13.371 48.228 9.129 53.378-7.943 60.879-29.602 11.652-57.357 7.913-86.08-5.97-2.754-1.321-27.747-20.325-32.96-26.11-23.137-22.601-38.927-63.349-35.04-96.96 0.36-3.05-0.09-6.16 0.79-9.12 1.35-4.91 0.43-10.02 1.01-15 0.43-3.61 0.61-7.26 1.37-10.8 11.746-39.865 9.294-28.766 31.23-19.55 43.942 18.075 87.037 41.118 168.9 21.491 24.587-5.895 49.338-13.977 74.779-7.56 26.271 6.627 51.038 23.407 63.436 47.975z"/>
	<path d="m1803.7 609.12c-0.174-0.301-0.352-0.607-0.527-0.908-0.099-0.127-0.195-0.254-0.294-0.381-1.436-0.745-3.064-1.621 0.821 1.289z"/>
	<path d="m2024 985.9c15.113-26.22 49.732-19.823 58.274 16.036-12.924-3.501-27.802 2.23-35.037 13.497-16.643 25.917 10.291 58.181 38.729 46.581 18.516-7.552 33.814-35.151 27.876-62.909-13.759-64.319-99.724-55.589-107.19-19.623-1.01 5.18-4.79 10.04-10.21 10.88-27.679 4.579-49.381 35.052-56.568 60.27-1.031 3.619-1.931 7.464-4.453 10.258-4.641 5.144-15.714 1.527-21.98 2.292-12.04 1.47-24.35 1.48-36.02 5.19-10.67 2.56-20.74 7.23-31.56 9.19 11.066-19.643 87.837-55.807 109.93-93.84 17.906-32.833 11.737-33.493 20.32-57.48 1.05-3.75 0.93-7.83 2.94-11.27 3.659-8.316 29.115-33.831 40.533-52.075 31.08-49.659 43.654-123.05 24.037-178.68-3.348-9.494 5.418-11.377 9.45-14.23 9.12-5.63 15.38-14.62 23.81-21.11 6.93-5.28 10.73-13.22 16.24-19.75 42.352-54.031 57.44-151.14 16.769-222.44-18.207-31.915-31.224-33.947-37.789-46.975-2.272-3.649 0.287-9.485 1.022-13.248 30.632-156.88-116.9-210.29-196.58-204.23-23.297 0.702-48.225 5.174-69.205 15.567-41.922 20.766-53.853 24.545-101.94 76.543-28.656 33.288-1.33 11.385-87.96 38.09-91.866 28.319-129.73 85.778-141.69 96.55 3.09-19.513-27.791-57.074-67.697-58.264-42.606-1.27-66.403 38.558-50.708 67.454 10.933 20.13 36.934 26.562 55.988 13.89 19.296-12.833 19.528-37.293 4.95-47.638-7.656-5.433-19.052-5.383-26.087 0.835s-8.217 18.304-1.872 25.223c5.884 6.418 17.526 6.594 23.037-0.147-6.458 23.302-43.921 19.484-46.145-9.37-1.565-20.304 17.551-39.63 45.279-37.547 57.103 4.289 67.071 84.931 17.605 87.145-64.526 2.887-83.876-2.85-78.707 36.478 6.092 46.347 13.167 94.189 37.94 133.83 2.231 3.57 5.037 7.358 9.179 8.111 4.329 0.787 8.625-2.22 10.783-6.055s2.661-8.346 3.191-12.714c18.279-150.68 115.32-286.93 263.32-295.06-34.633 32.294-91.916 2.468-186.1 128.43-21.189 28.337-26.931 37.95-31.92 51.308-4.159 11.134-45.528 119.93-35.643 133.86 12.194 4.906 54.857-4.811 88.547 54.363 37.011 65.008-16.431 138.08-83.373 114.88-67.664-23.454-57.359-105.01-0.887-115.35 42.663-7.817 56.762 33.515 51.678 51.631-8.389 29.895-50.224 30.277-55.466 0.417-1.556-8.865 2.526-18.082 5.904-26.065-41.577-8.722-58.145 61.514-0.547 79.276 85.093 26.241 131-101.82 24.014-145.02-16.729-4.459-47.426-8e-3 -69.791 16.432-33.433 24.578-43.539 67.712-28.34 97.698 16.696 39.859 36.085 43.561 45.78 52.13 9.54 8.22 18.42 17.88 30.41 22.56 50.284 23.204 78.949 6.385 103 12.9 4.58 0.95 9.11 2.61 13.88 2.19 0.07-5.73-3.69-10.31-5.47-15.5-37.396-99.683 64.969-156.5 116.14-110.03 51.939 47.159 18.953 122.81-33.691 113.34-27.526-4.954-45.307-32.898-37.863-56.552 7.839-16.859 36.387-23.795 49.59-2.78 5.91 6.72 4.57 16.45 9.12 23.8 15.981 0.486 28.025-15.466 26.393-29.687-0.681-5.935-2.964-11.551-5.224-17.08-7.621-18.646-20.006-29.412-39.404-35.099-44.282-12.982-96.352 44.911-80.565 97.876 41.76 140.11 340.37 81.056 243.01-149.89-22.525-53.432-59.559-100.66-106.08-135.29-17.163-12.774-36.635-25.147-44.307-45.119-16.796-43.725 34.998-145.23 66.933-189.16-31.973 131.26 44.059 260.37 96.778 351.24-0.19-0.144-0.395-0.299-0.621-0.469 0.382 0.478 0.737 0.961 1.111 1.44 0.035 0.018 0.07 0.036 0.104 0.054 0.063 0.109 0.127 0.219 0.19 0.327 73.367 94.471 3.342 214.33-77.767 240.64-9.092 2.949-19.313 3.007-28.043 6.777-10.195 4.403-9.698 14.901-12.881 24.024-13.2 37.832-47.599 69.514-90.206 75.631-4.886 0.971-9.932 0.447-14.787 1.292-49.861 8.68-85.732-15.577-96.258-45.2-15.144-42.617 14.522-70.084 38.235-60.972 14.539 5.587 24.149 21.278 16.85 36.85-7.13 10.238-21.621 12.856-30.001 2.797-3.377-4.054-5.529-8.828-8.952-3.598-4.811 7.352-5.078 17.431-0.663 25.027 7.615 13.102 21.832 11.795 34.896 11.883 23.446-0.212 48.715-24.795 42.302-61.327-5.888-33.544-35.191-56.036-72.779-45.328-55.343 15.765-84.604 104.64-59.444 155.47 18.668 48.315 31.626 61.577 60.14 102.92 16.27 0.162 24.215-15.239 163.39-79.01 6.929-3.51 48.493-21.063 52.84-23.21 150.03-72.217 194.98-70.523 237.35-166.53 11.101-23.963 11.136-32.096 10.03-79 0.367-7.371-1.566-6.368 15.34-8.8 5.665-0.948 8.188 3.106 8.28 35.86 0.898 26.168-22.534 77.629-39.76 97.75-18.148 21.453-41.047 38.056-42.69 39.36-8.254 6.509-34.159 20.103-35.16 20.74-4.68 2.64-8.37 6.81-13.51 8.66-7.679 4.515-35.809 16.419-36.81 16.93-6.89 3.74-13.45 8.75-21.38 9.95-3.552 0.669-38.104 18.876-44.84 21.9-5.25 2.26-11.11 3.02-16.01 6.09-21.384 13.306-82.908 37.552-83.91 37.92-3.5 1.24-6.23 3.88-9.52 5.49-7.77 3.87-16.65 5.17-23.87 10.19-22.516 11.657-46.838 17.418-44.16 22.82 0.55 2.65 3.32 5.11 2.05 7.91-0.69 2.54-3.57 3.73-5.99 3.61-3.61-0.38-5.09-4.16-8.01-5.73-4.347-0.748-7.979 0.157-24.74 12 1.93 1.52 3.93 2.96 5.97 4.38-0.285 2.137 0.916 10.249-8.84 6.91-5.512-1.341-1.993-13.805-19.24 0.15-0.98 0.93-2.61 1.95-1.74 3.51 1.99 1.73 5.49 2.47 5.67 5.63 1.19 5.31-4.24 8.35-7.05 11.97-0.39-0.06-1.16-0.18-1.54-0.23-1.37-4.19-2.09-9.11-5.57-12.14-14.067-0.469-13.66 7.546-65.79 40.35-3.83 2.41-6.71 5.93-10 8.96-3.75 3.47-8.31 5.88-12.65 8.5-3.9 2.28-6.48 6.11-9.99 8.85-16.81 13.127-14.893 14.539-20.7 19.36-6.98 5.68-12.53 12.83-18.21 19.75-2.84 3.46-6.84 5.88-9.11 9.82-2.14 3.54-4.22 7.12-6.48 10.6-1.9 3.08-5.86 4.03-7.8 7.09-3.292 5.063-20.829 28.348-20.83 28.35-3.72 5.6-6.67 11.73-11.05 16.89-2.76 3.23-4.34 7.21-5.98 11.08-3.15 7.563-8.826 7.428-10.25 18.87 2.5 0.25 5.09 0.28 7.52 1.08 9.148 6.928-3.646 22.661-9 3.19-5.3 0.57-7.77 5.96-9.98 10.13-1.92 4.45-6.4 7.19-8.07 11.79-2.56 7.89-7.7 14.55-11.01 22.11-4.98 8.14-8.3 17.12-12.19 25.79-4.7 7.83-8.36 16.26-10.98 25.01-3.35 10.82-9.63 20.51-12.45 31.53-3.023 12.256-12.874 41.183-14.19 63.15 0.369 11.323-5.404 44.923-5.39 45.93 0 1e-3 0.69 43.04 0.69 43.04-0.22 8.71 1.36 17.36 3.17 25.85 1.475 4.594 0.281 33.378 5.98 44.56 7.95-6.11 13.44-14.87 21.86-20.47 7.84-7.52 16.58-14 24.14-21.81 11.19-11.13 21.69-23.07 34.17-32.8 2.873-2.216 0.982-7.454 0.586-10.378-17.906-132.02 26.32-230.86 32.944-252.1 0.429-1.002 14.248-29.232 27.38-49.63 109.13-157.89 241.43-210.28 288.02-233.02 38.39-21.538 31.797-21.287 108.62-51.36 97.877-42.116 53.031-20.629 109.18-48.84 5.05-2.06 4.94-8.79 9.39-11.55 20.737-13.539 21.136-3.929 67.71-49.3 12.751-12.149 27.315-36.99 28-37.99 17.156-26.485 22.046-58.716 23.6-67.55 0.901-5.187 2.441-24.34-0.25-43.51-0.701-5.77-6.064-9.807 10.03-18.68 6.899-3.728 9.621-12.197 19.107-9.867 6.998 1.718 14.526 53.355 5.744 96.979-28.393 141.05-173.17 159.92-185.98 165.39-1.004 0.429-55.896 25.651-72.05 33.43-15.936 7.674-32.719 16.074-46.655 27.945-4.114 3.505-5.24 7.132-7.42 12.014-4.667 11.379-15.31 26.444-7.72 55.08 9.436 54.444 44.936 95.45 59.13 125.04 3.27 9.73 6.84 19.38 11.08 28.74 1.851 4.436 2.617 9.352 4.425 13.934 62.126 157.42 15.433 369.79-73.274 490.42-79.618 108.27-171.11 141.56-190.23 152.21 204.46-113.85 279.19-385.11 155.6-611.15-20.118-36.793-44.985-71.505-57.935-111.39s-11.586-87.883 16.731-118.81c-119.02 50.325-220.85 140.38-285.34 252.36 50.335 4.323 99.13 25.038 137.2 58.247 45.681 39.846 50.642 12.902 62.775 12.97 8.156 0.046 7.398 2.319 64.244 97.092-48.201-15.286-84.003-54.684-120.86-89.306-101.84-95.672-166.18-63.164-155.19-42.471 73.97-11.296 133.22 59.164 185.3 93.661 36.027 23.864 79.514 41.389 101.07 78.846-42.114-21.056-84.619-42.361-121.06-72.177-39.276-32.135-98.74-106.45-169.03-88.347 65.264 16.001 124.37 55.98 163.5 110.6-2.217 4.665-4.434 9.329-6.652 13.994-4.921-5.634-7.226-13.463-6.144-20.864-6.801-0.449-13.601-0.898-20.402-1.346 2.375-10.935-7.029-21.759-17.864-24.56-31.889-8.245-116.39 40.993-132.17 128.2 20.25-16.156 40.5-32.312 60.749-48.468-4.146 43.347-6.185 92.564 23.697 124.24 27.288 28.925 78.084 31.029 107.67 4.46 51.765-46.485 15.771-139.21-49.423-131.29-48.359 5.875-58.911 66.666-21.767 82.25 15.708 6.591 36.586-1.498 41.936-17.67s-8.743-36.113-25.721-34.728c26.35-13.331 62.192 5.821 68.592 34.65 6.4 28.828-14.833 59.867-43.367 67.472-83.427 22.236-141.62-110.78-29.148-182.42 59.811 78.707 261.56 58.976 161.49 275.14-24.12 52.098-60.683 106.98-117.32 116.39-7.618-67.741-73.976-123.76-141.96-118.74s-125.67 71.358-120.07 139.3c2.53 30.69 17.228 60.99 42.298 78.873s60.686 21.476 87.111 5.664c26.425-15.811 40.043-51.733 27.566-79.886-8.504-19.191-29.387-33.2-50.201-30.484s-38.119 24.489-33.199 44.895c4.919 20.406 33.871 31.249 49.407 17.134 1.43 24.342-26.805 42.863-50.684 37.929-62.177-12.846-80.471-128.63-6.806-180.53 71.551-50.406 194.55-9.18 189.54 139.28-2.307 68.384-33.699 138.05-91.353 174.9-119.18 76.172-287.11-11.089-297.31-172.68-4.352-68.937 22.881-138.34 69.415-189.39 49.017-53.771 40.074-31.795 36.483-234.78-24.759 38.26-80.232 44.274-110.11 78.683-18.571 21.385-24.562 50.578-30.493 78.273-8.761 40.912-40.95 18.927-29.415-14.326 17.028-49.088 56.169-90.025 104.44-109.24-80.902-12.865-92.095-86.806-57.463-114.11 21.204-16.716 59.207-6.858 65.023 19.509 2.677 12.135-2.235 26.192-13.11 32.203s-26.895 1.395-31.182-10.268 7.29-26.427 19.357-23.46c-13.904-13.153-39.712-4.426-46.983 13.279-7.27 17.705 0.888 38.876 15.064 51.735 33.151 30.073 92.591 15.65 114.66-23.288s9.248-91.59-23.131-122.49c-33.329-31.811-81.144-42.353-121.16-65.194-63.876-36.464-106.73-107.25-109.44-180.75-21.893 27.909-64.959 39.24-74.631 73.367-6.27 22.125 6.237 55.657-22.952 100.02-11.565 17.577-13.49 21.248-2.699 44.032 25.562 53.97 27.199 118.76 4.395 173.95-6.481 15.687-14.997 32.67-9.659 48.781 2.71 8.179 8.688 14.798 14.583 21.083 82.701 88.174 184.61 169.66 214.57 286.77 10.732 41.942 11.327 86.175 24.437 127.44 28.037 88.245 117.46 153.06 210.05 152.25 31.894-0.281 93.695-13.036 120.66 26.199 12.215 17.772 9.574 46.224-9.281 56.691s-47.53-9.805-39.659-29.883c-2.468 12.247 15.764 21.391 25.366 13.399s6.668-25.366-4.052-31.782c-10.719-6.415-25.504-2.706-34.088 6.371-19.108 20.203-3.405 58.799 23.883 64.152s54.862-18.268 58.89-45.783-11.737-55.353-34.49-71.341c69.503-11.44 134.41-48.891 179.1-103.34 26.277-32.014 9.319-48.695-0.57-50.624-33.661-6.566-84.334 112.72-169.74 128.15 74.938-69.437 61.525-137.48 82.786-159.59 17.766-18.48 276.49-89.486 317.07-452.66 16.813-150.46-16.106-149.06-9.194-224.22 11.574-125.86 94.523-165.56 149.17-155.5 86.004 15.841 143.86 135.61 77.871 209.06-35.808 39.855-96.018 45.621-129.3 19.302-39.686-31.379-21.493-86.16 16.686-87.869-4.825 11.279-4.79 24.716 0.843 35.614 15.61 30.206 57.113 23.767 67.367-8.658 12.684-40.109-30.728-79.615-77.175-61.695-59.283 22.872-69.4 116.2-7.738 144.91 40.683 18.94 89-4.959 129.83 53.974 66.023 95.301-36.378 194.79-108.55 131.6-22.083-19.334-22.518-45.447-9.205-59.366 7.742-8.095 20.779-11.168 30.761-6.087-15.319 11.117-12.729 34.886 4.606 42.453 27.307 11.92 49.075-25.962 27.825-54.257-32.711-43.556-105.67 3.544-79.38 63.257 12.973 29.465 49.644 48.17 83.5 46.286 54.209-3.017 97.826-66.302 77.426-133.31-17.607-57.832-56.968-70.864-62.76-78.76 12.305-7.64 67.542-32.928 77.669-87.765 18.592-100.67-35.804-133.78-62.689-193.74-13.409-25.584-10.84-63.588-2.106-78.74zm-522.88-504.41c8.339 3.998 3.347 11.494-0.8 14.41-3.79 0.53-5.8-3.34-8.05-5.66 1.49-4.01 4.37-7.96 8.85-8.75zm-46.926 94.313c-20.9-9.52-19.988-42.071 5.616-45.023 11.863-2.223 19.182 4.887 22.534 16.421 7.432 25.569-14.47 34.833-28.15 28.602zm41.876 12.787c-11.985-5.107-9.222-8.769-7.14-15.71 3.66 0.26 9.25-1.26 11 3.08 1.96 4.69-0.52 9.37-3.86 12.63zm9.43-34.78c-6.19 0.18-6.69-10.07-1.7-12.07 2.93-0.85 6.62-0.89 8.42 2.06 1.692 9.363-4.526 10.537-6.72 10.01zm13.879-149.63c-1.621 2.585-3.217 5.312-5.711 7.07s-6.196 2.238-8.475 0.209c16.361-45.353 82.443-89.368 129.1-103.17 40.498-8.274-66.023 17.941-114.91 95.887zm113.16-34.486c-0.216 1.072-11.034 37.458-10.11 52.7-0.32 9.63 0.79 19.23 0.52 28.85-3.57-1.77-7.12-3.62-10.24-6.1-13.744-12.145-38.809-10.903-49.07-17.93-3.95-2.28-7.3-5.67-11.63-7.2-7.63-0.76-15.8-0.02-22.72-3.98 2.997-10.206 28.826-43.913 57.18-59.49 6.928-3.549 21.28-19.096 43.38-28.81 4.32-2.32 9.7-3.88 11.89-8.71 1.87 1.86 4.44 2.4 6.94 2.92 0.766 10.661-13.682 35.61-16.14 47.75zm-132.15 666.79c-1.76 0.28-3.64 1.29-5.34 0.39-4.11-1.39-5.69-7.08-3.82-10.69 1.9-3.25 5.9-2.67 9.09-2.67 0.73 1.34 1.65 2.61 2.13 4.11-0.16 3.05-1.24 5.94-2.06 8.86zm5.19 20.05c-1.42-3.4-3.2-7.11-1.96-10.84 7.926-12.545 21.33 8.539 1.96 10.84zm26.29-42.41c-1.42-3.36-2.37-6.9-2.64-10.54 14.845-8.075 13.755 14.31 2.64 10.54zm11.49 24.57c-2.48 0.6-4.66-1.38-5.96-3.25-1.96-3.1-0.62-6.79 0.04-10.06 2.62-0.6 5.63-2.1 8.12-0.24 5.72 2.494 2.202 13.701-2.2 13.55zm14.18-38.29c-0.62-3.43-1.88-7.08-0.68-10.51 2.14-2.92 6.8-3.61 9.68-1.6 4.34 3.58 2.25 10.67-2.47 12.85-2.22 0.32-4.39-0.4-6.53-0.74zm10.5 21.55c-3.38-3.41-4.33-10.08-0.08-13.16 2.07-0.83 4.42-0.27 6.31 0.81 5.496 8.622-0.882 14.17-6.23 12.35zm17.71-40.95c-1.2-2.85 1.24-5.42 3.18-7.19 9.99-4.707 11.533 14.324 2.68 14.7-2.8-1.69-4.74-4.51-5.86-7.51zm18.3 27.98c-2.08 1.38-4.83 1.96-7.22 1.19-5.67-1.16-5.53-9.83-1.48-12.87 2.54-2.65 6.09-0.36 9.04 0.19 1.94 3.61 1.8 7.99-0.34 11.49zm11.94-38.22c-3.02-3.54 0.12-8.58 3.72-10.25 2.63 0.1 6.76 0.3 6.84 3.78 2.226 7.252-4.229 16.314-10.56 6.47zm13.57 24.53c-2.08-0.37-3.92-1.56-5.23-3.16-0.63-3.32-0.2-7.98 3.37-9.47 0.82-0.5 1.67-0.99 2.54-1.45 8.97 5.597 5.158 13.498-0.68 14.08zm14.48-41.83c0.66-3.24 2.85-5.9 5.66-7.55 1.944-0.629 10.511 0.493 6.4 12.13-0.658 3.97-11.177 2.445-12.06-4.58zm18.15 24.56c-1.14 2.83-5.41 5.31-7.75 2.41-3.63-2.29-4.51-8.36-0.83-10.96 2.3-1.8 5.24-0.59 7.8-0.19 0.79 2.8 2.07 5.87 0.78 8.74zm11.96-36.37c-2.12-3.3 0.44-7.56 3.77-8.78 2.06-0.81 4.27 0.02 6.24 0.74 2.01 2.29 2.8 5.51 2.19 8.5-2.26 4.97-9.92 3.98-12.2-0.46zm8.51 30.9c-0.93-3.58-1.7-7.29-1.09-10.98 1.44-2.44 4.18-4.92 7.23-3.63 7.357 0.326 6.433 18.091-6.14 14.61zm18.94-46.4c1.84-2.57 2.91-7.22 6.86-6.84 2.88-0.21 6.13 2.03 6.03 5.15 0.48 3.39-2.21 5.9-4.13 8.31-3.71-1.03-6.68-3.43-8.76-6.62zm19.89 29.16c-0.94 4.76-7.28 3.48-9.28 0.3-2.03-3.13-2.15-8.23 1.58-10.14 5.71-1.98 10.66 4.81 7.7 9.84zm11.4-48.57c2.51-0.85 5.24 0.43 7.36 1.77 2.71 3.77 1.3 9.84-3.01 11.77-6.76 0.97-11.35-10.88-4.35-13.54zm17.28 33.3c-1.72 3.91-7.13 2.64-9.56 0.15-3.23-2.71-1.42-7.13-1.09-10.62 3.41-1.07 7.73-2.98 10.75 0.05 1.93 3.08 1.12 7.21-0.1 10.42zm15.53-42.08c-1.42-3.34-0.62-8.05 3.15-9.39 4.76-2.26 10.59 4.55 7.92 9.11-1.78 4.41-8.51 3.42-11.07 0.28zm8.61 34.26c-6.465-7.854-5.197-6.673-5.48-14.86 2.5-0.72 5.14-2.36 7.79-1.21 6.202 1.571 8.36 10.394-2.31 16.07zm-476.75 398.05c1.36 2.72-0.35 5.59-1.37 8.12-2.82-0.47-5.72-1-8.19-2.5-1.29-1.55-2.39-3.38-2.67-5.39 3.971-7.541 11.176-4.299 12.23-0.23zm-19.47 134.56c-1.63-3.49 1.85-6.1 4.71-7.21 6.25-2.74 10.88 7.22 5.74 10.88-3.39 3.98-9.67 0.96-10.45-3.67zm3.77 30.98c-1.35 0.42-2.74 0.59-4.1 0.86-1.45-3.55-2.32-7.33-1.89-11.17 2.51-0.31 5.04-0.4 7.58-0.25 0.36 3.58 0.39 7.39-1.59 10.56zm1.79-55.11c-5.687-4.009-4.166-8.619-0.86-10.23 3.34-2.02 7.98 1.14 7.68 4.91-0.41 3.11-3.43 6.54-6.82 5.32zm13.02-63.49c-0.18 3.22 0.33 7.61-3.13 9.34-5.45 3.67-10.86-6.44-5.64-9.7 2.86-1 5.91-0.32 8.77 0.36zm-18.79-24.48c12.813-1.937 7.306 15.914-0.95 11.29-4.87-2.09-4.62-10.39 0.95-11.29zm-3.44 54.63c4.16 1.98 3.32 8.71-0.59 10.5-3.62 1.92-8.47-0.75-9.21-4.66-0.5-1.94 0.24-3.85 0.67-5.69 3.01-0.19 6.27-1.79 9.13-0.15zm-6.03 39.16c-2.28-1.46-4.6-2.85-6.86-4.3 0.09-3 0.14-5.98 0.2-8.96 3.32-0.82 7.17-0.39 9.25 2.68 1.47 3.7-1.17 7.29-2.59 10.58zm-7.13-66.36c3.18-0.67 6.24 0.53 9.26 1.39 0.37 4.01 0.94 8.82-2.84 11.46-4.44-2.56-8.02-7.55-6.42-12.85zm-11.45 27.49c5.36-1.02 10.46 5.04 8.16 10.2-2.08 2.02-5.31 2.76-8.11 2.25-2.36-1.66-4.33-4.01-5.31-6.72 0.28-2.88 2.61-4.94 5.26-5.73zm6.59 100.61c-7-0.1-8.52-10.63-2.49-13.45 8.754-2.37 12.799 10.719 2.49 13.45zm1.11 26.28c-2.34 0.29-4.68 0.46-7.01 0.66-1.8-3.01-4.76-6.63-2.63-10.22 1.59-3.62 6.17-4.68 9.44-2.65 1.84 3.83 2.14 8.34 0.2 12.21zm-13.69-98.06c2.64-1.31 5.22 0.84 6.98 2.64 1.58 1.19 0.5 3.14 0.19 4.69-0.62 4.49-7.56 5.69-9.77 1.77-2.02-3.08-0.47-7.38 2.6-9.1zm-6.16 31.57c2.16 0.05 4.52 0.49 6.17 2.02 4.508 8.56-0.947 14.194-7.03 12.14-8.232-6.927-3.177-12.896 0.86-14.16zm2.27 38.83c0.36 3.83-2.44 7.21-4.29 10.39-6.296-4.383-5.577-4.57-6.34-11.92 3.33-2.18 8.67-2.66 10.63 1.53zm0.17 72.13c-1.48 2.03-4.33 1.82-6.5 2.47-2.16-2.73-4.9-6.46-3.16-10.03 2.735-8.571 13.783-2.567 9.66 7.56zm-10.18-42.34c1.97-1.53 4.39-0.06 6.02 1.29 1.81 3.92 0.04 9.67-4.57 10.46-5.61-0.84-6.95-9.57-1.45-11.75zm6.33 88.89c-12.567 4.076-14.46-13.613-6.52-18 12.71-3.039 15.12 12.026 6.52 18zm19.99-23.47c-1.845 7.65-22.443-1.646-8.47-12.57 2.92-0.6 6.27-0.14 8.42 2.12 2.38 3.04 0.92 7.11 0.05 10.45zm4.04-35.41c-2.95-0.3-6.48-0.13-8.64-2.5-1.81-3.37-2.24-8.06 0.68-10.93 3.05-3.1 10.03-1.92 10.47 2.89 1.4 3.77-0.83 7.3-2.51 10.54zm-2.98-99.2c0.41-4.54 5.7-4.28 9.07-4.22 2.31 2.79 2.52 6.47 1.98 9.93-1.06 1.9-2.71 3.4-4.01 5.14-3.42-2.72-8.6-5.62-7.04-10.85zm17.12 119.17c-2.87 0.84-6.39 0.67-8.23-2.03-3.45-3.26-1.36-10.01 3.26-10.89 8.073 1.178 5.866 7.068 4.97 12.92zm3.37-77.14c11.898-1.894 11.11 9.375 6.04 12.36-7.361 3.934-11.904-9.152-6.04-12.36zm4.94 26.86c3.24-1.26 7.93 0.7 8.35 4.45 1.42 3.62-1.6 8.49-5.66 8.12-6.36 0.44-7.91-10.04-2.69-12.57zm7.49 35.1c-2.84-0.03-5.68-0.24-8.49-0.51-1.54-3.19-2.59-7.17 0.24-10.03 2.95-0.87 7.64-1.55 9.16 1.94 1.57 2.79-0.08 5.85-0.91 8.6zm-4.32-164.1c-0.59-2.8 2.04-4.42 3.99-5.77 3.87-1.01 7.26 3.52 8.14 6.96-0.721 6.803-8.797 10.156-12.13-1.19zm19.09-51.32c-4.318 1.684-11.784-7.284-3.23-10.58 2.64-0.7 4.75 1.69 6.52 3.31 1.44 2.92-0.26 6.32-3.29 7.27zm1.25-30.54c1.821-5.031 2.459-5.066 10.37-2.13-0.515 15.953-11.472 7.929-10.37 2.13zm23.3-49.86c0.94 2.48-0.55 4.89-1.35 7.19-5.07-0.27-6.81-5.23-7.13-9.54 2.82 0.25 7.06-1.03 8.48 2.35zm-4.55 26.99c-4.98-1.85-4.5-9.68-0.21-11.95 4.53-0.83 7.14 3.84 9.6 6.83-2.6 2.39-5.35 6.3-9.39 5.12zm18.77-28.3c-4.59-2.91-5.09-10.19-0.04-12.89 3.88-1.11 7.75 2.04 7.97 5.94-0.45 3.79-3.86 7.61-7.93 6.95zm10.54-26.27c-2.41 4.41-8.94 2.08-10.95-1.49-0.74-2.29-0.5-4.74-0.56-7.08 5.934-2.822 13.692-2.721 11.51 8.57zm15.49-13.18c-1.85 1.57-4.49 0.67-5.83-1.08-0.49-2.11-0.53-4.29-0.65-6.42 2.97-1.39 6.2-1.19 9.17 0.13-0.11 2.61 0.12 6.01-2.69 7.37zm16.05-21.17c-2.29-2.91-5.38-6.05-4.77-10.07 6.201-15.007 21.678 3.864 4.77 10.07zm21.64-21.77c-2.29-1.49-5.6-2.31-6.46-5.21-1.79-3.7 1.21-8 4.55-9.52 2.36 0.03 4.63 0.77 6.93 1.29 0.962 5.459 2.565 6.644-5.02 13.44zm22.78-20.14c-4.55 0.81-8.81-4.72-6.3-8.82 1.59-3.11 5.39-3.54 8.49-3.04 1.08 4.02 1.28 8.87-2.19 11.86zm23.36-24.52c-3.046 13.531-16.437-3.823-6.74-6.46 3.77-1.88 7.07 3.06 6.74 6.46zm18.84-16.12c-0.81 4.34-5.96 3.8-9.28 3.38-0.92-3.56-0.06-8.48 4.18-9.26 2.56 0.91 6.01 2.53 5.1 5.88zm24.85-16.97c-0.38 2.89-3.33 6.46-6.48 4.9-4.55-1.55-4.52-8.9-0.02-10.42 3.4-1.65 7.29 2.02 6.5 5.52zm571.16-512.99c-1.01 3.98-1.39 9.05-5.83 10.71-0.97-61.116-39-108.52-74.32-116.47-4.47-0.82-6.93-5.25-11.15-6.62-4.81-1.75-9.26-4.37-13.08-7.77 9.79-3.57 18.27-9.83 27.47-14.6 1.01-0.592 22.101-9.612 37.35-29.59 2.57-3.25 6.02-5.61 9.4-7.96 17.53 21.417 40.141 76.393 39.03 100.34-0.63 4.56-6.45 4.31-9.33 6.88-1.3 2.67 0.39 5.49 2.34 7.31 2.23 2.07 5.51 1.55 8.31 1.81 1.08 3.57 1.4 7.35 0.8 11.04-2.288 14.577-0.464 17.274-3.45 22.9-3.08 0.32-4.38-4.13-7.58-3.66-7.508-0.566-6.474 9.678-3.99 11.9 2.13 1.82 5.11 1.7 7.72 2.32-1.13 3.86-3.02 7.47-3.69 11.46zm5.9 29.78c4.71-11.64 8.57-23.62 12.31-35.6 2.09-7.04 6.15-13.59 6.22-21.13 1.299-46.832-2.773-67.521-17.29-102.12-15.912-38.665-23.676-45.997-25.5-57.72 5.84-12.38 9.29-26.04 17.29-37.34 97.869 83.16 36.584 242.49 6.97 253.91zm-277.47 243.94c4.31-1.1 9.27 2.81 8.53 7.38-0.24 3.34-2.37 7.09-5.95 7.41-2.26-0.71-4.64-1.67-6.22-3.44-0.95-4.01-2.11-10.7 3.64-11.35zm15.5 35.43c-6.384 16.377-19.419-2.48-10.55-8.75 4.98-2.49 13.81 2.71 10.55 8.75zm10.33-41.18c-0.7-3.08-1.06-7.99 3.07-8.56 2.77-1.23 5.77-0.34 8.17 1.29 1.01 3.2 0.95 6.74 0.08 9.97-3.3 3.04-10.64 2.43-11.32-2.7zm16.37 28.89c-2.861 6.976-11.083 6.42-13.37-3.71 0.51-2.31 0.52-5.67 3.17-6.6 3.14-1.3 6.67-0.09 9.21 1.96 0.91 2.6 2.73 5.68 0.99 8.35zm26.24-13.71c-11.212 4.145-12.563-5.75-11.77-8.61 1.13-1.64 2.64-3.01 4.3-4.13 2.54-1.2 5.19 0.68 7.28 2.04 2.49 3.07 0.44 7.21 0.19 10.7zm-12.15-38.82c2.86-1.11 5.86-1.84 8.95-2 5.882 9.594-2.246 13.772-5.68 10.86-2.55-2.19-2.64-5.82-3.27-8.86zm112.76-141.21c-46.931 12.352-78.348-16.082-78.15-44.616 0.12-17.357 14.179-34.345 31.517-35.153-8.275 18.126 6.222 41.797 25.973 44.437 19.75 2.64 39.266-14.25 41.448-34.056 4.386-39.821-47.271-68.078-86.221-35.863-40.104 33.17-33.234 105.17 10.355 121.79 8.273 3.155 17.772 4.352 25.878 7.564-4.643 5.736-1.693 16.858 9.823 13.008 1.103-1.321 1.904-2.864 2.427-4.508 19.038 23.854-13.944 99.147-67.223 136.73 3.391-15.518 5.124-30.804 5.448-45.89 1.405 3.222 6.741 2.796 9.238 0.65 1.71-3.46 1.97-7.81 0.11-11.27-1.81-1.87-4.63-1.32-6.77-0.5-1.285 0.334-2.079 1.064-2.558 2.007-2.219-141.76-125.69-266.31-160.87-401.48-31.299-120.24 14.316-209.64 84.682-243.82 19.754-9.593 40.463-11.876 61.75-15.848 6.556-1.238 51.701 2.17 73.624 9.175 108.42 34.646 141.58 157.95 86.339 241.3-21.422 32.325-55.647 56.67-93.898 63.045-92.23 15.373-157.39-73.146-121.34-143.8 17.626-34.542 60.663-54.904 97.841-43.872 25.294 7.506 25.49 24.975 19.98 32.107-8.654 11.202-26.206 3.161-40.359 3.449-17.396 0.354-32.214 16.853-32.535 34.249-0.629 34.121 42.667 56.82 78.314 31.34 26.982-19.287 34.465-60.026 18.447-89.068s-52.092-44.484-84.785-38.903c-92.193 15.736-121.27 155.97-4.879 231.44-47.143 13.06-56.136 68.337-24.018 90.393 16.097 11.054 40.751 8.319 52.611-7.194 7.591-9.928 9.065-24.982 1.327-34.796s-25.061-10.943-32.347-0.789 2.242 27.721 14.516 25.369c-5.993 11.107-23.683 11.651-32.396 2.521-10.769-11.283-13.943-40.471 25.25-59.721 84.846-41.673 178.25 26.237 167.44 112.62-5.11 40.802-36.22 77.479-75.987 87.946zm-212.88 347.23c1.26-2.83 4.85-2.61 7.36-3.52-0.4 3.38 1.33 8-2.02 10.31-1.7-0.25-3.33-0.74-4.96-1.12-0.16-1.9-0.43-3.78-0.38-5.67zm13.15 58.63c-1.97 2.8-1.98 6.29-2.3 9.57-3.48-4.74-5.69-10.22-8.1-15.53 1.34-2.09 2.48-4.39 4.34-6.09 1.82-1.07 4.1-0.67 6.15-0.94 3.41 3.62 2.45 9.15-0.09 12.99zm-604.11 585.2c-2.81 0.29-5.19-1.88-6.83-3.9-2.46-3.13-0.15-7.93 3.57-8.68 6.63-1.45 8.29 9.8 3.26 12.58zm32.38-102.1c0.26 3.23 0.15 6.73-2.43 9.08-2.32-0.03-4.98-0.53-6.67-2.18 0.5-2.45 1.29-5 3.02-6.86 1.86-1.1 4.07-0.18 6.08-0.04zm-31.69-53.46c9.11-2.53 20.67 2.9 22.46 12.69 1.758 18.903-6.074 23.713-19.68 21.83-17.38-5.811-13.619-31.625-2.78-34.52zm-11.06 77.51c2.17-0.35 4.37-0.59 6.58-0.37 0.243 2.139 4.788 14.27-9.27 9.6 0.57-3.17 1.54-6.23 2.69-9.23zm-261.48-346.05c-4.35-1.1-3.7-6.83-2.03-9.94 1.39 0.01 2.79 0.04 4.2 0.09 0.05 3.27 1.54 8.02-2.17 9.85zm7.15-61.9c-3.3-2.96-3.13-8.03-1.94-11.93 0.54-2.45 3.23-3.21 5.31-3.85 4.08-1.48 9.39 0.88 10 5.44 2.192 6.7-7.878 16.049-13.37 10.34zm23.09 31.07c-1.64-0.08-3.26-0.14-4.87-0.19-1.04-3.54-2.08-7.19-1.47-10.89 2.36-0.16 4.73-0.28 7.12-0.26 0.57 3.79 0.41 7.67-0.78 11.34zm14.55-56.45c-14.552 7.872-23.491 4.009-27.18-1.88-5.429-7.954-13.524-11.952-7.2-28.47 1.219-3.344 2.034-12.042 19.22-14.7 26.193-2.615 33.772 32.681 15.16 45.05zm762.48 497.69c-0.99-0.87-0.82-2.67 0.12-3.47 1.6-0.12 1.48 3.62-0.12 3.47zm-172.22-191.05c-2.71-0.26-5.78-0.25-7.78-2.35-0.88-1.04-2.56-2.11-1.69-3.63 1.9-4.73 3.72-9.53 4.6-14.56 2.94 1.67 5.95 3.25 9.07 4.63-2.3 5.03-4.1 10.32-4.2 15.91zm45.72 20.42c-5.7-0.1-10.5-3.17-15.17-6.04-5.92-2.65-12.28-4.32-17.74-7.95 3.01-4.33 5.43-9.13 5.62-14.5 3.56 1.1 7.03 2.48 10.7 3.27-3.22 4.11-4.14 9.25-3.66 14.36 3.39 1.45 6.75 3.36 10.52 3.55 4.88-1.24 3.87-8.24 8.2-9.99 8.917 4.676 7.83 6.436 1.53 17.3zm26.93 17.71c-4.68-2.52-9.11-5.57-12.87-9.33 3-4.32 4.91-9.22 6.21-14.29 6.23 2.59 11.76 6.54 16.4 11.43-4.85 2.6-7.07 7.69-9.74 12.19zm13.13 11.11c1.65-5.07 4.45-9.77 4.81-15.2 4.27 0.73 6.8 4.28 8.88 7.74-4.72 2.22-8.61 5.98-13.69 7.46zm14.38 14.09c1.63-1.92 3.21-3.88 4.83-5.81 2.44 5.52 4.98 11.08 5.95 17.1-3.65-3.73-7.11-7.61-10.78-11.29zm-120.06 321.5c-0.05-2.33-0.09-4.64-0.07-6.93 16.701-8.148 32.817-16.383 47.385-28.18 29.49-23.879 58.299-62.614 72.014-91.013 20.703-42.867 32.94-131.42 31.87-150.93-0.64-11.67 1.39-23.31 0.68-34.98-0.52-8.16-4.39-15.88-3.67-24.14 0.45-4.05-1.85-7.54-2.79-11.31-1.35-4.22-1.72-8.69-3.29-12.83-5.36-14.459-14.578-57.39-19.81-70.11-4.61-11.09-11.47-21.1-15.64-32.39-5-11.48-11.78-22.07-18.12-32.83-4.97-9.08-14.22-15.24-17.48-25.34 0.775-2.23 28.719-27.49 29.72-28.27 5.62-4.43 11.11-9.06 17.2-12.86 4.83-3.04 8.34-7.7 13.14-10.77 5.68-3.82 10.39-9.25 17.07-11.41 1.86-0.08 4.31-0.26 5.51 1.53 3.29 4.47 5.7 9.52 8.64 14.22 6.113 9.425 8.338 8.75 21.08 34.09 3.044 6.224 4.409 2.003 11.84 22.18 2.15 5.8 5.34 11.26 6.55 17.4 4.535 25.356 6.398 16.676 13.42 52.71 0.349 2.171 6.656 19.813 7.41 28.45 0.81 19.2-0.05 38.43 0.8 57.64-0.11 11.04-3.94 21.85-2.52 32.95-0.25 8.9 1.31 18.25-1.87 26.79-2.06-3.52-6.1-5.22-10.02-3.89-4.35 1.43-8.68-0.5-13.05-0.33-9.297 3.588-3.783 21.788 8.68 9.97 3.95 1.81 8.32 4.12 12.62 1.87-0.269 29.693-13.74 62.021-14.61 71.37-0.95 6.26-5.49 10.85-8.52 16.11 3.627-14.824-23.362-9.106-3.11 11.39-0.464 5.741-3.139 6.165-10.93 25.71-1.69 4.1-5.18 7.05-7.18 10.96-5.77 13.15-15.67 23.84-22.84 36.18-4.28 5.06-5.86 11.77-10.21 16.77-7.49 8.92-13.67 18.88-21.62 27.41-14.778 14.354-38.578 34.571-57.03 46.08-13.536 10.101-40.325 30.811-61.249 26.73zm204.89-295.65c-1.43-0.18-1.67-0.85-0.74-2 1.38 0.14 1.63 0.81 0.74 2zm193.87-626.6c6.8-2.8 13.33-6.34 20.48-8.22-1.37 6.34-1.76 13.3-6.1 18.49-10.434 19.508-32.046 33.95-40.9 36.02 12.383-17.159 22.545-25.456 19.79-45.93 2.22 0.13 4.59 0.63 6.73-0.36zm-32.14 14.79c4.24-3.4 9.41-5.23 14.63-6.52-4.215 15.814-15.493 28.063-24.08 33.14-1.47 1.15-3.32 0.42-4.95 0.23 7.9-15.731 1.548-18.407 14.4-26.85zm-13.5 43.36c1.22 0.62 1.16 1.3-0.18 2.04-1.27-0.65-1.21-1.33 0.18-2.04zm-26.39 50.67c5.01-20.311 13.398-22.817 19.72-28.25 22.852-20.414 32.769-12.585 69.4-51.68 13.866-14.143 17.209-38.886 18.66-44.19 6.14-5.28 13.85-8.09 21.36-10.83 0.078 43.207-40.582 83.993-76.65 104.48-6.7 3.8-11.68 9.9-18.37 13.71-13.219 7.707-29.697 26.168-40.27 35.04 0.87-6.48 4.75-11.95 6.15-18.28zm-49.75-32.69c-8.213-13.801-2.079-19.622 10.37-22.83 14.301 0.178 18.918 28.406-4.29 28.04-2.97-0.23-4.65-2.96-6.08-5.21zm18.56 38.54c-2.46 3.56-5.29 6.88-7.29 10.75 0.33-6.15-5.66-10.81-4.09-17.06 1.181-7.458 16.724-6.403 11.38 6.31zm3.71 168.51c-4.81-3.39-5.48-9.92-5.73-15.35 3.32 0.46 6.61-0.23 9.62-1.68 0.04 5.88-1.02 11.83-3.89 17.03zm90.5-148.3c-10.908 7-6.892-0.855-40.16 27.88 0.51-4.24 1.58-9.16-1.53-12.69-9.635-3.09-13.489 5.17-13.37 8.04 1.23 5.05 6.56 8.2 11.6 7.98-3.91 7.52-9.44 14.03-14.38 20.88-3.92-2.02-7.98-5.77-12.7-3.8-4.74 1.03-3.86 7.04-3.92 10.72 3.11 1.72 6.27 3.38 9.52 4.88 0.79 5.49-2.73 10.29-5.59 14.63-2.63-1.2-5.41-3.27-8.43-2.25-4.36 0.75-7.93 4.7-8.34 9.05-0.44 4.95 5.77 5.95 9.28 7.55 1.08-1.19 2.18-2.36 3.29-3.53 0 2e-3 -8.47 28.42-8.47 28.42-1.48 1.82-3.79 0.4-5.65 0.31-4.21-1.07-7.72 2-10.97 4.13-2.23-3.33-4.43-6.92-4.96-10.95-1.709-26.969-17.637-64.993 59.5-103.48 3.92-1.76 7.51-4.41 11.8-5.27 7.56-1.17 14.52-4.52 21.95-6.26 6.62-2.51 13.63-3.29 20.6-4.22 0.25 0.38 0.76 1.16 1.01 1.54-3.49 1.95-6.52 4.61-10.08 6.44zm73.59-3.58c1.17-0.91 1.85-0.68 2.06 0.71-1.22 0.89-1.91 0.65-2.06-0.71zm-3.33-23.24c-0.57 2.28-0.6 5.58-3.06 6.68-4.29-0.66-9.28-0.89-12.58-4.01-0.83-5.23 1.32-10.35 2.98-15.2 7.998-21.505 18.759-27.871 27.38-35.58 1.29-1.31 3.02-1.81 4.81-2.16-3.2 7.8-7.81 14.88-11.88 22.21-2.26 9.43-6.73 18.3-7.65 28.06zm17.6 10.956c-11.803 1.685-4.933-27.016 14.941-49.296 1.16-1.21 2.78-1.77 4.29-2.47 1.059 17.72-4.728 5.085-14.794 29.579-0.726 1.765-5.508 22.34-4.437 22.187zm38.075 22.105c-6.267-0.841-12.974-8.041-18.695-10.901-2.56-1.28-4.7-3.27-6.26-5.62-2.802-18.261 6.284-28.281 8.2-33.71 12.437 33.491 18.456 43.685 16.755 50.231z"/>
	<path d="m242.51 249.38c11.659-10.988 8.236-33.785-3.42-39.57-6.1-3.12-13.24-7.06-20.16-4.04-5.13 2.25-10.78 4.23-14.57 8.54-25.425 36.11 13.52 61.972 38.15 35.07z"/>
	<path d="m105.05 226.78c6.82 1.87 14.15-4.55 14.01-11.37-1.42-6.89-10.01-10.16-16.17-7.59-4.579 1.201-7.603 13.817 2.16 18.96z"/>
	<path d="m1507.9 235.81c4.31-3.04 5.59-9.28 3.23-13.89-5.15-5.24-13.106-1.99-13.97 2.52-1.019 6.718 4.925 16.277 10.74 11.37z"/>
	<path d="m333.95 245.36c0.72-4.87-1.86-10.47-6.48-12.44-8.855-0.786-11.158 3.976-9.27 11.84 1.304 4.764 12.812 6.703 15.75 0.6z"/>
	<path d="m269.92 270.83c6.964-5.879 6.234-22.809-11.15-19.42-7.57 0.94-10.84 11.83-4.97 16.69 4.62 2.96 10.81 5.06 16.12 2.73z"/>
	<path d="m1484 321.03c20.464 4.055 35.16-5.369 40.26-20.15 1.33-4.34 0.31-8.93 0.16-13.36-0.17-4.58-2.63-8.58-4.26-12.74-3.54-8.87-13.98-13.79-23.17-11.73-36.531 10.246-33.481 53.765-12.99 57.98z"/>
	<path d="m1540.5 286.05c7.021 0.201 7.036-11.995 1.8-14.86-3.3-0.83-6.43 0.96-9.35 2.24-0.1 2.8-0.46 5.67 0.18 8.43 1.72 2.28 4.28 4.59 7.37 4.19z"/>
	<path d="m580.79 338.87c6.34 1.3 12.24-2.39 16.77-6.43 27.329-25.439-6.378-63.199-30.63-32.62-5.905 7.614-2.871 25.43 0.83 31.36 2.53 4.79 8.15 6.44 13.03 7.69z"/>
	<path d="m1475.6 336.05c5.185 7.697 13.394 6.258 15.3-1.65 0.17-2.93-1.13-5.68-1.91-8.45-11.964-3.523-16.085 4.2-13.39 10.1z"/>
	<path d="m603.31 348.67c2.23 4.298 11.611 5 11.82 0.46 1.179-11.016-2.251-12.33-11.13-11.15-2.87 2.75-2.32 7.42-0.69 10.69z"/>
	<path d="m1616.6 354.26c2.44 4.59 11.28 3.48 11.51-2.11 1.606-18.591-20.621-6.738-11.51 2.11z"/>
	<path d="m811.05 354.93c-0.01-2.33 0.17-4.67-0.24-6.97-7.248-9.714-19.308-0.459-12.8 9 4.43 1.82 9.15 0.35 13.04-2.03z"/>
	<path d="m769.91 388.87c8.41-9.42 9.86-25.37 1.26-35.13-9.938-4.013-23.495-1.076-26.73 5.58-12.696 24.632 8.478 35.515 25.47 29.55z"/>
	<path d="m1587.7 358.56c0.27 2.97-0.51 6.5 1.6 8.96 2.4 2.35 6.1 1.22 9.12 1.44 1.61-3.34 2.68-7.26 1.14-10.84-3.36-3-8.88-3.19-11.86 0.44z"/>
	<path d="m1334.3 380.47c9.315-7.758 3.712-21.132-6.36-18.64-10.884 2.31-8.312 23.047 6.36 18.64z"/>
	<path d="m1608.3 380.54c2.02 2.08 5.43 1.28 8.06 1.16 2.62-2.63 3.68-7.33 1.34-10.45-8.791-2.907-12.005 1.368-9.4 9.29z"/>
	<path d="m801.47 392.18c5.92-1.02 7.36-9.26 3.51-13.27-1.94-1.6-4.7-2.86-7.05-1.31-1.68 0.74-3.36 1.61-4.61 2.98-1.9 5.28 2.69 11.51 8.15 11.6z"/>
	<path d="m1575.2 391.75c2.91 0.4 7.01 1.23 8.77-1.88 0.62-3.36 0.52-7.41-2.1-9.94-7.561-2.385-11.439 7.518-6.67 11.82z"/>
	<path d="m865.66 401.59c10.967-10.533 3.625-18.652-3.76-14.92-6.08 2.34-7.9 10.51-4.03 15.55 2.43 0.93 5.76 1.39 7.79-0.63z"/>
	<path d="m1610.8 405.65c1.85-2.73 1.74-6.41 0.8-9.45-0.78-3.32-5.03-2.52-7.53-2.14-3.64 1.67-3.63 6.41-2.89 9.77 1.87 3.3 6.51 2.4 9.62 1.82z"/>
	<path d="m1328 404.88c3.33-3.94 0.64-11.67-5.14-10.17-5.729 1.457-7.294 5.552-5.52 10.85 2.83 3.05 8.65 3.55 10.66-0.68z"/>
	<path d="m1553 408.92c-0.016 3.755 13.297 4.438 13.18-2.65 0.471-15.018-16.062-9.698-13.18 2.65z"/>
	<path d="m1282.8 418.12c2.44 1.51 5.19 4.86 8.31 3.13 3.99-1.81 4.28-7.04 3.83-10.82-1.04-4.12-6.77-4.4-9.77-2.41-3.15 2.37-2.28 6.69-2.37 10.1z"/>
	<path d="m1595.2 408.52c-10.586-3.999-12.963 9.526-6.1 13.27 6.197 2.65 10.526-9.776 6.1-13.27z"/>
	<path d="m717.43 411.88c-4.107 0.011-8.437 2.739-12.345 3.91-15.394 4.611-8.823 12.326-5.953 27.192 33 170.92-48.295 373.6-259.88 504.8-4.308 2.671-9.286 6.759-7.992 11.661 0.659 2.496 216.37 183.12 358.96 193.52 119.25 8.698 181.51-79.064 171.63-159.07-12.521-101.38-129.19-154.51-203.86-100.16-33.09 24.084-50.384 69.602-37.625 108.49 23.127 70.483 109.4 64.688 121.89 11.655-16.885 8.538-39.186 5.766-52.573-7.605s-15.885-36.683-4.613-51.88c10.865-14.65 31.955-19.48 49.335-13.946 39.698 12.641 61.356 70.962 37.15 110.13-13.65 22.087-40.343 34.55-66.293 33.675-76.589-2.584-124.85-99.621-82.951-171.2 3.625-6.193 7.882-12.19 9.684-19.135 3.202-12.344-1.844-25.106-5.534-37.312-19.275-63.764 3.827-141.61 61.877-174.29 46.753-26.316 125.8-20.69 152.06-184.27 5.239-32.631-3.058-41.626-24.692-50.861-51.789-22.108-125.18-43.273-185.39-34.946-4.302 0.529-8.582-0.401-12.872-0.361zm110.42 186.81c7.84-2.33 16.03 1.35 22.04 6.31 3.37 2.98 7.39 5.94 8.36 10.62 1.14 5.97 1.8 13.05-2.32 18.07-7.156 9.215-11.388 8.639-26.47 10.81-30.621-3.373-16.716-42.024-1.61-45.81zm-17.17 52.65c-3.729 12.045-15.456 6.779-16.74-1.08 1.911-10.398 6.319-8.576 11.21-7.61 3.13 1.76 5.12 5.16 5.53 8.69zm-26.91-35.63c1.06-2.43 3.85-3.23 6.12-4.11 11.496-1.174 13.989 15.464 5.68 14.73-3.067-0.095-14.376 2.745-11.8-10.62z"/>
	<path d="m500.58 430.59c1.13-3.64 0.87-8.37-2.14-11.04-12.795-6.928-14.964 11.094-6.55 13.3 2.87 0.19 7.48 1.31 8.69-2.26z"/>
	<path d="m1603.4 423.58c-2.483 8.264 3.161 7.448 11.75 7.29 0.52-3.14 1.72-6.82-0.49-9.6-2.79-4.22-10.02-2.37-11.26 2.31z"/>
	<path d="m531.87 424.11c-5.664-4.771-18.269-1.861-12.58 7.4 9.326 12.953 16.671-0.788 12.58-7.4z"/>
	<path d="m1293.8 499.05c18.53 25.751 17.622 41.645 74.93 82.08 3.52 2.47 6.89 5.49 11.25 6.35 0.05-2.63 0.59-5.46-0.76-7.86-5.24-9.58-11.72-18.69-14.68-29.33-11.382-37.742-23.661-105.6-23.06-120.99-0.37-2.5 0.46-6.85-3.08-7.15-17.883 1.917-61.08 18.06-65.13 21.98-1.4 4.3-0.27 8.9 1.42 12.96 3.77 14.97 10.25 29.3 19.11 41.96z"/>
	<path d="m509.94 448.09c0.12-3.48 1-7.64-1.79-10.37-2-2.89-7.15-2.66-9.07 0.22-1.904 10.444 3.455 11.532 10.86 10.15z"/>
	<path d="m534.04 443.8c-3.742 3.485-2.358 14.097 7.85 12.08 2.83-1.3 2.39-4.9 2.44-7.47 0.47-5.22-6.64-6.99-10.29-4.61z"/>
	<path d="m554.04 443.64c-3.745 3.873-2.128 13.785 7.64 10.85 1.97-1.75 1.36-4.73 1.01-7.02-0.41-3.73-5.7-5.76-8.65-3.83z"/>
	<path d="m2037.5 458.99c8.617-3.259 7.452-14.499-4.41-11.93-2.55 0.91-2.33 4.01-2.21 6.19-0.05 3.47 3.81 4.98 6.62 5.74z"/>
	<path d="m992.94 583.64c17.522 17.925 46.647 105.87 23.082 167.19-25.819 67.179-108.55 101.04-181.74 47.947-60.815-44.121-11.994-110.98 23.831-85.59 21.519 15.254 5.65 45.844-14.788 38.719-3.803-1.326-9.277-4.316-10.891 3.444-7.062 33.953 42.985 54.571 69.011 18.065 35.804-50.221-22.747-134.97-103.6-82.839-29.229 18.845-29.087 119.06 37.687 154.74 19.009 11.913 37.733 27.504 57.507 25.221 4.806-0.555 19.939-5.942 26.62 8.205 2.506 5.306 0.316 12.187 4.763 16.684 19.157 20.115 18.62 20.692 22.58 21.45 1.784-16.528-2.574-10.605 7.55-35.46 24.124-55.773 97.962-63.319 132.66-20.012 27.422 34.222 18.402 86.851-14.041 106.36-43.252 26.015-89.727-31.513-71.318-66.637 12.19-23.26 42.261-21.207 49.66-1.782 3.713 9.746-0.933 22.218-10.548 26.259-4.911 2.064-11.512 2.764-13.293 7.785-3.265 9.203 12.077 30.026 32.319 26.411 34.146-6.099 52.878-70.565 9.359-102.32-51.622-37.672-134.72 11.673-106.59 96.907 5.199 15.757 17.143 38.936 19.736 42.286 11.55 14.92 65.909 58.626 116.96 61.642 10.989-0.019 64.255-9.987 106.95 7.1 44.113 17.439 88.661 30.587 112.69 71.57 1.35 0.05 2.71 0.1 4.09 0.16 33.806-57.553 38.798-33.942 39.83-62.69-0.168-33.637 8.393-67.524 28.4-93.09 13.348-19.559 28.53-23.96 31.8-33.19 2.499-13.659-3.589-13.279 2.01-41.9 0.6-5.6 3.08-10.73 4.08-16.23 3.268-18.08 13.808-32.344 12.56-37.63-10.2-50.712-65.609-91.359-95.709-99.212-53.64-13.995-84.618 22.493-91.281 39.502-2.72 6.2-5.03 12.57-7.34 18.93-7.219 30.416 6.348 77.046 39.82 84.81 37.454 8.688 68.478-34.623 55.386-38.575-5.146-1.553-11.213 10.251-25.017 2.892-5.453-2.907-9.384-8.248-11.299-14.123-9.02-27.665 23.647-53.606 52.704-36.396 11.884 7.039 19.625 20.181 21.192 33.904 6.212 54.429-69.937 94.726-121.2 45.049-23.975-23.235-31.333-68.742-11.388-103.47 3.408-5.934 8.835-10.942 11.229-17.334-0.96-12.062-13.391-11.206-2.09-63.33 9.211-50.202 42.249-76.476 56.54-89.75 14.213-12.955 41.543-20.99 48.17-23.94 1.57-2.49-1.23-4.65-2.9-6.13-4.5-3.55-8.39-8.01-13.66-10.43-1.94-0.96-3.93-1.93-5.48-3.47-43.608-43.898-30.948-37.93-44.29-53.7-0.116-0.154-21.28-33.7-21.28-33.7-0.683-1.519-7.262-27.425-10.84-33.41-2.29-0.87-4.74-0.05-6.94 0.63-10.7 3.79-20.62 9.36-30.88 14.14-16.231 8.718-16.128 3.597-59.84 42.06-30.694 24.252-38.868 45.101-48.06 55.95-3.69 4.24-5.74 9.56-9.07 14.05-6.5 8.82-8.64 19.97-14.91 28.92-19.725 30.425-3.021-4.536-69.24-76.62-16.818-18.308-10.291-7.106-25.351 25.235-12.085 25.948-15.945 18.478-5.909 28.745zm339.87 438.13c2.98-0.71 4.68 2.5 5.76 4.74-0.1 1.99-1.69 3.6-2.89 5.08-1.62 2.21-5.61 1.73-6.56-0.84-1.74-3.19-0.13-8.26 3.69-8.98zm4.66 38.63c3.99 6.41 8.52 13.75 6.65 21.64-14.28 43.226-58.485 11.622-48.5-15.55 6.86-13.454 29.013-20.484 41.85-6.09zm-47.75-24.91c2.87-0.21 6.59-0.42 8.36 2.37 1.91 4.7-0.75 11.68-6.43 11.75-3.01-1.48-4.56-4.57-6.32-7.23 1.21-2.38 1.37-6.07 4.39-6.89zm-18.03 14.5c17.052 1.037 16.974 26.288 0.81 27.98-17.755-8.212-19.993-22.632-0.81-27.98z"/>
	<path d="m508.12 475.77c8.72 2.045 14.013-4.028 8.67-12.67-2.48-3.931-13.417-3.727-13 3.34-0.55 3.68 1.45 7.18 4.33 9.33z"/>
	<path d="m2019.1 476.12c3.34-1.54 3.94-6.38 1.65-9.03-3.38-4.819-15.79-2.484-11.04 5.87 1.89 3.22 6.04 3.59 9.39 3.16z"/>
	<path d="m2054.3 477.67c3.66-2.92 2.15-9.71-1.97-11.53-6.341-1.172-9.546 1.443-8.14 8.1 2.24 3.08 6.48 4.12 10.11 3.43z"/>
	<path d="m916.56 603.44c-6.872 13.575-36.757 43.175-35.912 49.52 6.13 1.333 13.639-4.921 18.523-7.92 32.545-19.988 37.374-23.795 61.909-49.06 19.22-19.791 44.848-72.855 41.8-86.04-2.74-5.27-7.58-9.05-11.82-13.06-28.347-21.961-30.025-28.38-40-28.32-3.577 15.066 8.929 49.076-34.5 134.88z"/>
	<path d="m1987.3 484.19c2.09 3.81 7.47 3.44 10.92 1.91 3.95-1.27 3.68-7.03 0.96-9.44-3.926-5.106-14.95-0.082-11.88 7.53z"/>
	<path d="m2039.4 488.84c0.97-3.84 0.94-8.57-2.31-11.31-8.307-4.531-10.418 7.349-6.73 10.89 2.82 1.24 6.05 0.46 9.04 0.42z"/>
	<path d="m2010.8 495.36c-0.76 6.25 9.26 7.26 11.9 2.83 2.568-10.666-12.77-13.613-11.9-2.83z"/>
	<path d="m2052.1 491.97c-4.64 2.62-2.27 12.07 3.5 11.22 4.42 0.79 10.07-5.12 6.19-8.98-2.18-2.85-6.51-4.12-9.69-2.24z"/>
	<path d="m2038.5 503.51c-3.675-3.199-12.617-1.257-10.21 7.73 1.8 2.27 4.23 4.33 7.14 5 2.29-1.23 4.73-2.75 6.11-5.03-0.17-2.79-1.51-5.42-3.04-7.7z"/>
	<path d="m2061.8 523.08c2.22 2.43 5.79 1.49 8.71 1.49 1.854-11.649 0.668-13.928-5.01-13.78-7.556-0.772-6.62 9.625-3.7 12.29z"/>
	<path d="m2050 519.99c-2.87-0.48-6.78-1.19-8.65 1.63-1.12 3.37 1.23 6.48 2.39 9.5 2.8 0.01 5.62-0.07 8.44-0.3 0.81-3.55 1.82-8.85-2.18-10.83z"/>
	<path d="m2060.7 537.87c-2.63 0.06-5.24 0.23-7.81 0.62 0.11 2.86-0.74 6.13 0.92 8.68 2.22 2.99 6.33 1.43 9.33 0.77 0.32-3.57-0.58-7.03-2.44-10.07z"/>
	<path d="m2072.9 567.73c2.405-11.359-4.343-11.698-7.06-10.25-3.48 2.24-4.56 7.95-1.27 10.82 2.42 1.62 6.22 1.65 8.33-0.57z"/>
	<path d="m894.12 812.48c24.698 13.695 66.927-4.373 97.874-39.582 17.941-21.046 41.51-88.671 4.914-163.43-0.771-1.576-13.008-23.633-14.314-22.177-5.4 6.02-11.57 11.49-15.61 18.58-2.9 4.9-8.14 7.55-11.86 11.68-1 4.59 8.93 24.099 11.35 32.95 5.776 20.322 6.912 9.923 10.159 42.543 3.275 32.904-0.627 48.861-15.388 75.533-19.592 35.402-44.627 39.654-67.125 43.906z"/>
	<path d="m1342.1 615.63c-0.55-0.44-1.64-1.31-2.18-1.75-2.105-1.715-11.383 3.452-12.974 4.914-76.065 69.88-65.632 129.08-58.006 138.4 3.141 2.006 8.58-3.938 25.22-12.21 3.182-1.936 4.771 0.075 0.887-20.675-1.516-8.1 0.236-33.931 10.537-57.558 8.74-20.045 23.282-34.24 36.516-51.117z"/>
	<path d="m1313.7 739.86c10.498 0.434 20.699 1.959 31.116 3.466 1.749 0.253 9.756 2.543 11.024 1.524 1.689-1.357-0.37-6.066-1.581-7.27-15.785-17.784-27.91-85.087 10.15-117.26 1.81-1.53 1.95-3.8 1.72-6-2.093 0.854-17.156 7.923-22.69 14.98-52.647 67.958-36.609 111.06-29.739 110.56z"/>
	<path d="m943.46 629.91c-5.551-1.586-11.782 5.391-15.905 8.265-18.582 12.955-49.445 31.13-50.547 30.31 4.62 3.437 9.607 6.645 13.902 10.485 20.614 15.468 31.071 40.94 29.63 66.42 2.138 29.748-31.612 56.838-35.238 55.58 22.99 7.974 86.735-18.926 82.278-100.56 0.212-10.573-9.381-66.293-24.12-70.5z"/>
	<path d="m771.34 709.71c-2.46 0.78-4.88 1.95-6.27 4.23-3.86 5.73-9.1 10.45-12.33 16.62-2.09 3.91-3.74 8.07-6.33 11.71-10.208 14.967-17.678 47.148-18.32 57.76-4.291 22.454 1.556 42.23 1.7 43.23 1.22 7.46 4.56 14.29 7.68 21.1 1.81 6.25 4.06 12.63 8.47 17.57 1.21 1.42 3.39 2.18 5.12 1.21 5.91-2.49 10.7-6.92 16.42-9.77 40.152-18.337 56.422-9.216 72.28-11.75-6.52-4.98-12.8-10.31-19.72-14.74-4.54-3.06-8.1-7.32-12.55-10.5-4.38-3.05-6.56-8.06-10.04-11.94-40.42-43.788-25.818-107.05-26.11-114.73z"/>
	<path d="m1922.3 762.54c4.03-1.91 6.34-6.74 5.62-11.09-1.76-4.97-8.44-7.06-12.91-4.57-8.732 7.555-1.995 17.837 7.29 15.66z"/>
	<path d="m1948.3 757.39c0.129-6.963-13.336-10.504-15.79-0.15-1.35 4.1 2.03 7.77 4.68 10.48 12.386 3.116 11.104-8.48 11.11-10.33z"/>
	<path d="m1916.5 788.22c5.859-5.27 8.118-5.853 5.58-16.28-2.06-0.07-12.266-1.257-11.18 6.47-0.66 4.26 3.1 6.99 5.6 9.81z"/>
	<path d="m1930.8 793.05c2.92 0.61 7.4 2.16 9.17-1.22 1.81-3.01 2.67-6.84 1.7-10.27-2.51-4.01-7.99-2.75-11.95-2.76-1.939 4.839-3.729 13.281 1.08 14.25z"/>
	<path d="m1909.4 810.8c5.87-2.38 8.51-9.69 6.03-15.4-2.03-2.31-5.78-2.81-8.53-1.62-8.57 2.35-5.84 16.77 2.5 17.02z"/>
	<path d="m1916.2 810c-0.43 2.59-1.43 7.08 2.21 7.62 10.269 3.506 15.752-2.089 15.05-10.15-0.425-4.624-8.947-10.632-17.26 2.53z"/>
	<path d="m1471 816.55c-5.87-2.09-12.22-1.7-18.11-3.61-5.63-1.55-11.23-3.31-17-4.23-0.5 4.88 2.18 9.05 3.92 13.38 3.18 7.07 4.94 14.98 10.06 21.02 21.356-22.084 20.088-19.911 21.13-26.56z"/>
	<path d="m1904.9 834.39c0.97 3.98 4.79 7.93 9.24 6.53 6.28-2.17 8.54-10.77 4.97-16.15-9.831-5.623-14.365 4.427-14.21 9.62z"/>
	<path d="m1524.2 934.5c-1.391 18.822 80.672 18.466 107.88-47.343 14.808-35.816 0.552-22.577-32.422-37.997-4.717-2.206-9.073-5.187-13.773-7.361-1.063-0.492-8.691-2.239-8.906-2.914 5.411 16.989 10.278 34.878 6.123 52.701-9.053 38.839-42.075 38.849-58.904 42.914z"/>
	<path d="m1893 840.99c-5.77 2.58-6.46 12.81-0.19 15.24 5.532 2.405 16.19-5.138 8.94-14.02-2.33-2.12-5.9-1.66-8.75-1.22z"/>
	<path d="m1595.3 943.73c1.95 0.67 3.98 1.71 6.14 1.2 61.132-16.172 78.582-73.519 77.64-82.61-1.78-2.4-5-1.11-7.48-1.2-7.67 0.97-15.8-2.21-23.15 1.06-2.537 2.431-2.033 8.021-2.552 11.244-2.985 18.543-11.859 34.649-25.185 48.453-1.775 1.839-24.392 22.204-25.413 21.853z"/>
	<path d="m1406.7 1143.2c1.18-4.25-2.74-7.47-3.52-11.39-1.66-7.25-5-14.05-5.59-21.54-3.301-32.894-8.566-25.035-2.4-66.82-0.061-15.244 6.998-47.993 25.74-64.7 2.39-2.36 5.32-5.27 4.2-8.97-13.422-7.568-64.439 60.276-52.05 133.13 4.829 29.249 11.89 47.294 13.57 50.49 2.843 6.74 15.278-4.448 20.05-10.2z"/>
	<path d="m1424.8 1004.3c0.085 1.163 0.333 2.383 1.118 3.245 2.931 3.22 5.928-2.764 9.977-9.025 5.972-9.233-12.22-9.622-11.095 5.78z"/>
	<path d="m1425.2 1126.2c1.935-12.309-20.034-43.321-5.56-96.567 2.103-7.736 6.063-15.337 1.679-23.16-0.85-1.85-3.16-1.82-4.77-2.52-3.995 13.251-11.146 23.126-14.005 53.343-1.019 10.776-0.945 57.217 11.423 77.874 5.211 1.493 10.391-3.614 11.233-8.97z"/>
	<path d="m1069.9 1071c17.174-11.023-29.143-7.59-68.885-44.149-3.87-3.56-8.69-5.93-12.26-9.82-2.17-2.34-4.69-4.66-8.09-4.64 2.042 15.103 57.777 59.524 79.517 60.936 3.333 0.216 6.885-0.508 9.718-2.327z"/>
	<path d="m1468.6 1099.4c12.671-8.079 29.96-9.412 17.563-25.741-14.379-18.94-24.967-29.706-36.262-52.037-1.636-3.235-5.671-20.816-14.772 1.411-12.396 30.272-14.785 60.545-0.18 91.004 3.775 7.872 3.35 4.682 33.651-14.637z"/>
	<path d="m1713.3 1178.7c3.004 4.206 5.876 8.279 8.623 12.59 10.88 17.078 10.982 17.467 19.101 9.6 11.245-13.202 12.818-11.933 6.26-22.27-2.997-4.218-31.041-48.949-39.5-86.55-2.67-6.48-1.91-13.6-3.59-20.29-3.305-18.55 4.097-33.73 4.851-38.449 0.198-1.238-0.492-11.1-0.328-11.225-47.045 35.892-29.48 108.9 4.583 156.59z"/>
	<path d="m977.19 1041.8c7.638 16.743 25.615 36.698 60.86 54.06 2.04 1.06 4.73 1.52 6.61-0.17 3.94-3.62 7.91-8.17 7.55-13.89-0.061-0.963-7.755-3.42-8.833-3.953-40.501-20.026-62.129-48.522-70.207-53.717-1.898 9.351-1.65 5.341 4.02 17.67z"/>
	<path d="m1032.8 1108.2c9.083-0.186-4.815-6.691-14.861-14.163-11.273-8.385-22.607-11.708-39.96-35.16-2.76-3.73-4.53-8.1-7.47-11.7-23.361 16.762 51.99 61.234 62.291 61.023z"/>
	<path d="m1671.4 1050.6c-2.844-0.814-5.033 5.319-6.099 7.266-29.804 54.426-6.008 97.951 28.755 151.99 4.4 8.26 8.74 16.61 13.8 24.48 3.676 1.615 20.761-8.881 16.069-24.485-4.993-16.604-65.961-65.199-51.858-150.41 0.37-2.239 2.711-7.867-0.667-8.834z"/>
	<path d="m2114 1057.6c-5.828 2.752-4.918 12.709 5.401 10.129 7.24-2.021 2.504-13.862-5.401-10.129z"/>
	<path d="m1142.1 1290.5c-1.166 5.619 12.062 7.767 27.63 19.58 67.469 42.297 51.014 115.64 65.83 88.36 6.03-11.76 9.78-24.52 15.46-36.44 42.192-97.466 56.421-69.814 47.272-131.82-8.817-59.757-47.96-135.6-113.73-154.52-24.674-7.098-50.233-11.137-75.787-6.949-21.008 3.443-38.625 11.212-51.177 28.174-35.47 47.933-42.518 122.85 8.005 152.11 34.489 19.974 72.302 4.12 68.975-36.451 0.319-7.106-15.553-0.523-21.6-4.47-33.855-25.322-19.348-72.488 25.55-70.78 26.675 1.015 42.617 34.47 47.008 56.818 12.733 64.807-40.626 92.656-43.437 96.393z"/>
	<path d="m1025.9 1132.8c2.07-3.84 4.41-7.86 4.73-12.27-0.17-0.37-0.52-1.11-0.7-1.48-4.131-3.399-38.268-20.843-46.05-28.02-1.006-0.906-22.252-19.43-24.35-20.85-9.21 17.944 26.155 44.066 41.63 56.57 5.124 4.309 21.495 12.229 24.74 6.05z"/>
	<path d="m1629.6 1104.4c-2.337 7.916-0.905 32.92-0.91 33.92-0.148 26.411 16.875 57.857 31.982 83.35 1.801 3.04 22.589 38.232 24.748 37.15 5.47-2.74 9.83-7.14 14.13-11.4 11.461-9.56-38.553-57.38-52.899-107.44-8.718-30.424-5.683-61.728-4.142-63.064-7.847 6.804-12.598 26.487-12.909 27.488z"/>
	<path d="m2067.7 1085.9c-1.556 3.165-1.267 10.93 2.483 12.833 1.93 0.98 4.18 1.07 6.34 1.11 6.529 0.799 7.183-11.531 4.17-14.905-3.376-3.779-10.683-3.735-12.993 0.962z"/>
	<path d="m1304.8 1199.6c3.21-7.91 2.75-16.63 5.16-24.73 2.832-11.374 13.997-32.048-35.46-67.6-1.001-0.687-35.654-18.924-39.59-19.83-0.2 0.74-0.6 2.23-0.81 2.97 3.23 2.91 6.31 6 9.66 8.79 25.656 21.458 39.329 57.582 49.35 75.62 5.13 9.797 6.576 23.284 11.69 24.78z"/>
	<path d="m2119.7 1090.2c-8.554-7.366-25.604-2.011-31.16 14.25-5.032 14.728 7.404 29.831 19.606 30.972 19.618 1.835 30.632-28.727 11.554-45.222z"/>
	<path d="m1331.5 1217.5c2.09 0.27 4.77 1.42 6.45-0.48 21.1-19.443 5.617-26.984 31.63-71.45 2.55-7.39 0.53-15.67-2.56-22.6-4.85 3.72-6.79 9.77-10.65 14.33-4.16 5.05-5.7 11.52-8.67 17.23-9.771 19.097-11.672 28.358-12.09 39.91 0.08 2.75-1.57 5-3.57 6.72-0.85-4.4 0.55-8.64 1.2-12.92 0.97-13.226 1.091-35.191 30.79-76.41 1.89-2.13 0.64-5.04 0.3-7.46-1.91 0.03-4.31-0.51-5.52 1.38-5.96 7.36-13.59 13.34-18.22 21.73-12.516 12.816-29.13 64.39-29.04 76.88 0.043 3.79-3.257 33.798 2.56 42.39 8.79-7.37 17-17.25 17.39-29.25z"/>
	<path d="m966.79 1113.9c-6.789 13.985 4.999 40.128 8.68 45.01 0.81-0.02 2.44-0.08 3.25-0.11 0.32-8.07-1.12-16.22-1.72-24.28 0.618-10.569 2.363-16.402-10.21-20.62z"/>
	<path d="m1817.6 1116.7c-2.28 3.58-2.93 8.94 0.57 12 8.973 1.847 10.874-2.482 9.74-9.79-2.42-3.19-6.89-2.01-10.31-2.21z"/>
	<path d="m998.82 1137.5c-3.45-4.06-8.44-6.27-12.86-9.04-7.826 21.497 10.758 68.11 21.1 67.77 0.39-5.49-2.58-10.27-4.14-15.32-9.279-30.617-3.149-28.178-4.1-43.41z"/>
	<path d="m1019.6 1148.3c-3.77-2.52-8.15-3.95-12.58-4.73-6.204 14.057 5.048 39.149 6.6 44.72 0.53 2.22 1.93 4.01 4.08 4.89-0.25-10.18-0.33-20.39 0.14-30.56 0.42-4.77 3.3-9.54 1.76-14.32z"/>
	<path d="m405.01 1154.7c-1.709-7.587-19.11-8.216-15.1 7.03 17.34 1.343 15.135 1.313 15.1-7.03z"/>
	<path d="m859.77 1418.7c1.96-8.376 6.467-12.098 0.067-52.067-0.753-4.705-0.992-12.223-3.437-16.356-3.85-6.51-10.59-10.67-15.07-16.69-8.069-14.163 4.565-19.191-2.831-33.18-4.502-8.515-10.42-15.542-15.925-23.33-1.398-1.977-7.197-23.189-22.673-27.66-14.491-4.186-12.026-6.681-14.346-17.355-3.235-14.882-90.616-91.068-97.193-81.62-4.197 6.029 44.872 57.334 69.952 97.611 19.623 31.514 28.365 54.041 33.227 95.284 0.8 6.88 3.61 13.32 4.81 20.11-0.445 27.982 8.042 55.215-6.623 100.64-3.036 9.404-3.852 15.519 3.013 23.092 6.789 7.033 30.258 32.154 41.63 35.58 5.651-11.101 10.648-22.534 14.967-34.218 13.461-36.412 0.174-26.006 10.432-69.838z"/>
	<path d="m1803.1 1150.1c-15.064 8.086-8.031 28.905 5.05 12.94 2.77-3.85 2.04-8.88 1.24-13.23-2.11 0.02-4.24-0.18-6.29 0.29z"/>
	<path d="m830.89 1162c-1.812-2.783-8.979 0.317-33.877-0.424-71.978-2.142-102.32-28.17-48.253 13.544 1.96 1.801 35.104 31.492 39.027 35.598 6.702 7.015 22.609 4.882 26.849 22.776 4.919 20.755 27.441-54.31 16.254-71.494z"/>
	<path d="m1376.2 1153.9c-4.368 4.023-13.223 21.678-12.18 30.41 15.721-16.794 19.841-12.954 12.18-30.41z"/>
	<path d="m836.53 1275c10.732-13.067 16.477-9.64 28.92-49.55 7.517-24.11 10.736-82.143-4.3-66.35-1.518 5.259 0.981 12.918 1.706 18.246 2.094 15.38 3.577 17.848-5.7 41.576-22.462 57.45-24.457 40.414-23.026 54.638l2.4 1.44z"/>
	<path d="m842.68 1158.4c-2.828 6.084 1.374 11.371 0.47 17.496-4.607 33.555-0.99 39.186-10.879 58.488-3.595 7.017-7.216 14.574-6.372 22.413 28.143-23.906 29.36-95.53 16.781-98.397z"/>
	<path d="m382.91 1170.4c-0.27-5.29-6.57-8.33-10.95-5.74-2.46 3.66-1.71 9.92 2.91 11.51 3.78 2.04 9.27-1.24 8.04-5.77z"/>
	<path d="m691.73 1185.1c-1.27-4.25-3.75-9.11-8.72-9.55-0.452 8.791 3.991 26.011 4.766 38.672 5.752 93.947-60.522 131.69-65.857 136.65 0.03 1.29 0.07 2.6 0.12 3.93 3.73 2.69 7.88 4.78 11.42 7.75 3.026 2.482 19.049 14.016 24.22 9.04 30.358-26.424 54.11-83.531 44.518-146.64-2.101-13.833-6.477-26.494-10.467-39.846z"/>
	<path d="m1795.9 1180.7c-4.27 0.85-3.38 6.02-2.89 9.23 1.09 2.11 2.52 5.46 5.45 4.83 11.296-1.626 7.335-18.853-2.56-14.06z"/>
	<path d="m432.86 1206.3c0.68-3.26 0.12-6.99-2.5-9.26-9.179-1.473-11.417 5.433-7.97 11.46 2.68 4.04 8.62 1.22 10.47-2.2z"/>
	<path d="m1008.7 1201.4c-0.77 4.53 1.9 8.24 5.05 11.15 2.66-4.03 0-10.81-5.05-11.15z"/>
	<path d="m397.88 1209.5c0 4.08-1.24 9.13 2.22 12.24 2.88 3.32 9.17 2.05 10.87-1.89 1.714-5.397-1.516-16.71-13.09-10.35z"/>
	<path d="m670.52 1370.4c-2.92 3.14-6.48 7.14-5.31 11.77 2.75 3.46 6.36 6.15 10.1 8.47 7.62 4.1 13.35 10.88 21.06 14.88 25.316-24.557 32.693-103.28 29.993-134.55-0.379-4.39-6.266-50.667-12.19-57.215-0.571-0.631-5.965-3.509-5.953-3.451 13.417 67.987-11.259 136.19-37.7 160.09z"/>
	<path d="m387.25 1238.2c3.993-6.252 4.842-9.741-0.93-14.59-3.116-3.078-13.172 1.075-9.85 9.88 2.12 3.79 6.77 4.71 10.78 4.71z"/>
	<path d="m421.99 1236.8c2.37-2.33 1.54-6.27 1.22-9.24-0.9-4.09-6.18-3.05-9.2-2.55-3.706 2.417-6.053 14.099 7.98 11.79z"/>
	<path d="m368.69 1244.6c1-3.54 0.82-8.49-2.67-10.6-21.046-4.523-10.012 27.968 2.67 10.6z"/>
	<path d="m399.6 1239c-10.074 3.309-8.859 7.266-3.89 15.64 13.167-3.758 11.651-18.473 3.89-15.64z"/>
	<path d="m736.96 1250.7c-1.12-4.21-3.21-8.11-6.05-11.4-0.034-0.04-0.48 5.447-0.374 6.26 8.052 61.836-0.852 113.46-17.65 150.39-2.024 4.448-10.777 14.695-5.036 19.094 5.16 4.22 10.99 7.56 16.08 11.89 3.17 2.31 5.84 5.63 9.68 6.83 7.694 1.946 20.157-43.428 21.792-77.071 3.161-65.022-15.007-93.078-18.442-105.99z"/>
	<path d="m349.2 1265c2.8-3.71 4.22-8.99 1.95-13.29-3.24-3.56-10.4-2.7-11.92 2.22-2.888 13.521 7.879 10.843 9.97 11.07z"/>
	<path d="m381.35 1264.2c3.384 0.382 7.119-10.124 2.32-14-6.055-1.895-10.187 0.83-8.48 11.54 0.61 2.75 3.97 2.47 6.16 2.46z"/>
	<path d="m419.24 1253.1c-1.14 3.36-0.37 6.97 0.01 10.42 1.67 0.19 3.34 0.39 5.02 0.61 1.45-3.87 2.4-8.33 0.5-12.22-1.9-0.54-4.16-0.43-5.53 1.19z"/>
	<path d="m321.2 1265.2c-1.2 4.09 1.06 8.06 2.9 11.58 1.05 2.39 4.08 2.33 6.24 1.83 3.898-0.872 7.196-10.354 2.1-15.13-3.247-2.796-8.844-1.12-11.24 1.72z"/>
	<path d="m366.36 1265.2c-7.039-1.877-10.998 3.026-8.95 8.99 2.12 2.64 5.78 3.45 9.01 3.46 4.389-0.116 4.065-10.743-0.06-12.45z"/>
	<path d="m398.12 1268.8c-0.783 10.251-1.005 12.023 8.68 10.89 2.39-2.29 2.18-6.13 2-9.18-2.19-3.87-7.19-2.79-10.68-1.71z"/>
	<path d="m381.96 1277.8c-4.93 2.96-5.65 11.5-0.63 14.72 14.209 4.207 11.458-17.905 0.63-14.72z"/>
	<path d="m339.73 1285.4c-0.48 4.09 3.32 7.19 6.78 8.44 5.21 0.18 7.58-5.97 5.81-10.22-1.387-6.221-13.346-4.621-12.59 1.78z"/>
	<path d="m765.39 1293.8c-0.744-2.273-3.212-4.548-5.273-3.334-1.706 1.005-1.577 3.469-1.25 5.422 7.864 46.875 4.968 96.523-14.487 140.34-0.65 2.14-2.16 4.67-1.07 6.87 1.002 0.964 23.568 21.756 29.23 24.58 9.331-12.623 15.075-64.153 14.298-83.295-1.863-45.967-17.323-77.991-21.448-90.588z"/>
	<path d="m1662 1324.1c5.072-5.124 4.888-17.648-8.08-15.17-2.78 0-3.19 3.03-3.7 5.13-1.82 6.13 6.02 13.05 11.78 10.04z"/>
	<path d="m1632.9 1321c-3.584 0.686-5.821 10.14-2.55 13.61 11.298 13.408 22.765-17.6 2.55-13.61z"/>
	<path d="m1662.1 1341.7c1.74 4.1 6.41 4.84 10.36 4.01 3.28-3 3.17-7.89 2.5-11.92-1.692-8.406-18.193 0.301-12.86 7.91z"/>
	<path d="m1626 1347.1c2.64-17.465-14.42-12.273-15.97-7.23-2.974 10.325 14.547 15.245 15.97 7.23z"/>
	<path d="m1641 1351.4c-0.24 5.49 6.43 9.41 11.17 6.84 4.09-3.18 4.97-9.52 2.45-13.92-3.438-3.288-13.347-5.349-13.62 7.08z"/>
	<path d="m1591.1 1358.4c1.038 6.373 15.111 12.273 14.21-2.9 0.32-11.138-17.059-7.967-14.21 2.9z"/>
	<path d="m1686.7 1368.5c3.27-3.01 3.11-8.56 0.79-12.07-1.938-3.05-12.588-3.704-12.49 6.95 0.89 5.29 7.3 7.08 11.7 5.12z"/>
	<path d="m258.12 1358.9c-0.98 4.43-0.04 9.39 2.88 12.94 1.957 0.638 8.833-5.819 10.22-7.92 0.888-6.118-8.193-11.406-13.1-5.02z"/>
	<path d="m1632.5 1371.9c4.44 0.3 6.28-4.94 6.53-8.53 0.47-5.69-6.41-9.31-11.2-6.75-8.84 3.511-0.793 15.952 4.67 15.28z"/>
	<path d="m1659.6 1367c-7.75 0.63-7.48 13.62-0.09 14.78 8.491 1.258 12.168-15.134 0.09-14.78z"/>
	<path d="m1324.2 1402c-3.59 8.68-4.35 18.31-4.09 27.62 1.89-0.87 3.59-2.15 4.62-3.99 10.557-17.901 37.077-36.058 54.41-43.92 0.05-1.34 0.09-2.68 0.15-3.99-13.445-4.126-27.376-11.371-41.84-9.88-4.27 0.44-5.89 4.98-6.96 8.5-0.85 3.44-2.31 6.82-2.36 10.41 2.45 2.94 7.23 3.6 8.52 7.55 1.54 2.95-0.95 5.75-2.06 8.38-3.45-0.4-6.94-1.5-10.39-0.68zm23.17-26.43c4.15 3.41 1.62 11.52-3.86 11.58-11.208-1.13-7.498-18.099 3.86-11.58z"/>
	<path d="m1610 1371c-4.02 2.07-5.01 7.7-3.75 11.76 2.125 4.944 11.815 7.572 14.64-1.44 1.721-9.539-2.934-11.527-10.89-10.32z"/>
	<path d="m1641.8 1380.4c-5.42 1.87-7.14 10.74-1.52 13.35 3.87 3.07 9.34-0.28 10.6-4.41 0.439-3.271-0.387-11.731-9.08-8.94z"/>
	<path d="m1697.8 1398.6c4.28-1.8 3.42-7.26 3.19-10.98-0.32-4.77-6.64-5.79-10.12-3.99-5.772 3.914-6.787 18.537 6.93 14.97z"/>
	<path d="m1317.1 1482.8c5.718-2.237 7.158-16.109 21.56-34.26 34.813-42.878 54.636-43.271 71.5-54.4-9.332-14.294-40.756 3.786-53.761 13.944-32.262 25.198-40.896 61.137-39.299 74.716z"/>
	<path d="m1629.6 1395.3c-10.189-5.483-13.438 7.34-8.09 13.22 8.763 7.375 14.59-9.869 8.09-13.22z"/>
	<path d="m1671 1395c-4.57 2.33-6.2 9.19-3.48 13.45 3.74 2.99 9.06 0.84 12.62-1.43 1.69-2.91 1.28-6.97-0.21-9.92-1.48-3.43-6-2.53-8.93-2.1z"/>
	<path d="m182.98 1405c-8.57 3.26-7.81 16.73-0.47 20.87 16.955 3.563 21.795-25.795 0.47-20.87z"/>
	<path d="m1325.5 1496.3c-1.52 2.55-0.55 5.46 1.83 7.08 5.594-5.836 25.303-54.835 112.58-87.3 0.46-5.37-4.74-8.36-8.98-10.18-6.35-2.85-13.18 0.09-19.52 1.41-6.3 1.1-11.65 4.79-17.11 7.86-65.906 43.801-58.638 64.083-68.8 81.13z"/>
	<path d="m1654.1 1420.7c3.47 0.82 7.52-0.48 9.52-3.52 1.02-3.16 0.3-6.75-1.62-9.4-3.23-4.085-13.389-1.949-13.02 3.6-0.55 3.83 2.12 7.27 5.12 9.32z"/>
	<path d="m1701.7 1427.6c1.81 0.46 3.78 0.42 5.64 0.01 5.201-2.986 3.507-15.972-4.62-12.46-4.85 1.95-5.36 9.73-1.02 12.45z"/>
	<path d="m1642.5 1420.4c-4.373-4.089-15.904 0.597-10.41 10.32 1.16 2.06 2.55 5.18 5.45 4.69 3.246 0.11 11.434-6.464 4.96-15.01z"/>
	<path d="m1679 1428.7c-1.07 3.91 0.42 7.76 3.24 10.53 7.16-3.069 10.893-3.11 9.61-12.68-3.138-5.152-12.537-1.972-12.85 2.15z"/>
	<path d="m1662.4 1447.5c11.122 6.188 12.517-7.016 9.5-11.68-9.613-4.937-16.179 7.207-9.5 11.68z"/>
	<path d="m1711.8 1457.1c3.6 0.88 4.91-3.66 6.17-6.17 3.18-5.3-3.79-11.41-9.01-9.01-7.392 4.517-4.233 13.539 2.84 15.18z"/>
	<path d="m172.87 1452.4c-0.73 5.57 5.01 11.25 10.53 10.33 3.2-1.2 6.99-3 7.52-6.8 2.047-16.592-18.112-14.96-18.05-3.53z"/>
	<path d="m1650.2 1449.7c-1.71-2.79-5.49-2.11-8.2-1.74-4.21 1.9-3.36 8.56-0.42 11.35 8.52 3.922 12.99-3.564 8.62-9.61z"/>
	<path d="m1690.4 1468c5.95 0.2 8.38-7.6 5.67-12.05-1.26-1.43-3-2.26-4.53-3.25-12.727 6.735-6.872 16.19-1.14 15.3z"/>
	<path d="m1676.7 1472.6c7.506-15.166-12.041-17.49-10.66-4.25 0.18 4.88 7.23 7.15 10.66 4.25z"/>
	<path d="m1655.4 1482.2c2.587-8.714-15.791-14.456-12.05 1 1.71 5.43 11.48 4.88 12.05-1z"/>
	<path d="m1710.3 1479.1c-0.7 3.17-0.83 6.82 0.9 9.7 2.8 1.6 6.14 1.42 9.27 1.6 7.727-17.858-8.159-18.175-10.17-11.3z"/>
	<path d="m1699 1497.8c8.299-3.187 2.376-18.038-6.93-14.79-7.58 4.15-0.59 16.72 6.93 14.79z"/>
	<path d="m165.76 1493.4c-0.49 7.01 8.04 13.11 14.42 9.64 6.955-2.83 7.714-23.19-9.24-18.98-4.31 0.76-5.12 5.7-5.18 9.34z"/>
	<path d="m1683 1500.7c1.766-8.013 2.244-15.956-5.92-13.81-3.53 3.08-5.19 8.23-3.96 12.8 2.88 2.04 6.59 1.12 9.88 1.01z"/>
	<path d="m1660.6 1501.3c-3.03-2.47-8.42-0.95-10.36 2.29-1.32 5.36 2.77 12.05 8.7 11.75 2.31-4.25 3.21-9.39 1.66-14.04z"/>
	<path d="m1715 1522c2.61 1.24 6.11 1.13 8.49-0.64 2.14-3.72 2.25-8.97-0.93-12.12-5-5.617-13.902 4.311-7.56 12.76z"/>
	<path d="m1702.6 1526.4c3.56-3.1 2.74-8.73 0.12-12.15-2.66-0.73-5.64-0.86-8.21 0.16-3.64 3.09-2.46 8.35-1.62 12.44 3.19 0.07 6.68 0.9 9.71-0.45z"/>
	<path d="m1684.5 1534.4c1.03-3.24 1.18-6.95 0.06-10.15-6.06-5.776-13.05-0.521-9.6 10.72 3.15 0.8 6.55 1 9.54-0.57z"/>
	<path d="m1660.5 1541.8c12.508-1.736 6.967-15.969 0.4-14.01-3.04 1-6.86 2.91-6.78 6.64-1.01 3.74 2.29 8.46 6.38 7.37z"/>
	<path d="m179.15 1551.2c5.576-1.974 5.771-14.097 0.16-19.58-9.504-7.048-17.765 1.605-16.39 8.81 0.55 7.55 8.9 13.84 16.23 10.77z"/>
	<path d="m1714 1540.8c-6.198 3.377-2.313 10.328 1.37 16.16 14.048-1.382 7.574-17.293-1.37-16.16z"/>
	<path d="m1696.9 1546.6c-3.25 0.94-3.08 5.09-2.64 7.78 2.96 10.358 13.101 4.792 10.74-5.42-1.07-3.38-5.36-3.37-8.1-2.36z"/>
	<path d="m1685.6 1552.3c-4.182-3.27-9.774-2.049-8.72 8.76 1.253 8.381 12.726 1.141 8.72-8.76z"/>
	<path d="m1664.6 1554.1c-4.96 2.44-4.81 9.48-2.47 13.71 5.43 3.55 10.61-3.26 9.8-8.44 0.31-3.81-3.94-6.62-7.33-5.27z"/>
	<path d="m182.05 1582.4c0.29-6.08-7.5-7.55-12.16-6.51-9.677 3.28-10.802 29.873 10.65 16.56 2.08-2.87 1.67-6.72 1.51-10.05z"/>
	<path d="m1676.8 1584.7c-0.18 2.92 1.15 5.65 2.13 8.35 2.71 0.08 5.43 0.1 8.17 0.06 1.63-3.83 3.6-9.1 0.3-12.57-3.72-2.11-9.05 0.29-10.6 4.16z"/>
	<path d="m1664.1 1582.1c-5.38 3.68-1.23 15.34 5.92 12.84 3.58-2.58 3.91-8 1.51-11.48-1.55-2.53-5.02-1.71-7.43-1.36z"/>
	<path d="m1711.2 1608.4c1.36-11.38-21.264-6.192-7.82 14.86 3.06-4.65 8.75-8.64 7.82-14.86z"/>
	<path d="m1674.6 1610.5c0.71 4.38 2.97 8.37 4.58 12.5 7.786-6.455 9.001-6.267 7.73-15.06-3.25-3.59-11.54-2.9-12.31 2.56z"/>
	<path d="m1661.6 1619c0.99 2.47 0.44 6 2.98 7.57 2.264-0.776 8.377-8.547 6.18-17.56-2.29-1.45-5.48-1.61-7.86-0.35-3.74 2.12-2.1 7.02-1.3 10.34z"/>
	<path d="m192.9 1634.4c1.42-5.3-2.37-10.02-5.84-13.54-14.943-2.396-17.869 12.039-12.4 18.47 9.162 8.118 15.796 5.091 18.24-4.93z"/>
	<path d="m1673.5 1638.2c-3.69-0.04-7.6-0.54-11 1.2-3.33 3.1-3.32 8.23-2.27 12.34 2.825 7.324 13.301-0.268 23.49-0.07 1.32-4.17 2.63-9 0.65-13.13-3.44-1.64-7.28-0.33-10.87-0.34z"/>
	<path d="m1696.1 1641.1c-0.835 3.319-0.289 15.706 5.57 18.33 5.012-16.794 4.833-11.01 3.98-20.2-3.19-0.11-7.41-1.28-9.55 1.87z"/>
	<path d="m1658.5 1682.1c16.653-5.89 7.43-16.293 2.32-16.4-9.045 4.332-8.545 12.267-2.32 16.4z"/>
	<path d="m1675 1666.1c-5.391 1.272-8.716 14.74 8.89 12.81 2.15-3.11 1.48-7.52-0.26-10.67-1.48-3.35-5.74-2.46-8.63-2.14z"/>
	<path d="m190.77 1681c1.41 4.1 7.28 6.47 10.8 3.55 2.65-2.15 6.35-4.3 6.38-8.15 1.838-16.491-23.284-12.856-17.18 4.6z"/>
	<path d="m1655.3 1706.6c3.21-3.4 5.81-9.92 1.4-13.4-7.373-3.281-12.159 3.317-10.54 11.06 1.91 2.91 6.06 3.32 9.14 2.34z"/>
	<path d="m1672.2 1703.6c3.52 0.35 8.01 0.99 10.39-2.36 0.64-2.84 0.23-6.08-1.88-8.21-6.787-2.042-8.822 3.458-8.51 10.57z"/>
	<path d="m1646.8 1735c1.99 0.67 1.81-1.85 2.37-3.07 1.38-5.52 4.15-11.38 1.88-17.05-0.47-2.26-3.19-2.93-5.05-2.1-3.63 2.69-5.07 8.06-3.05 12.17 1.57 3.23 2.16 6.85 3.85 10.05z"/>
	<path d="m1664 1719c-8.467 3.048-5.196 19.015 2.32 15.59 4.65-3.53 7.17-10.03 4.7-15.6-2.35-0.13-4.71-0.41-7.02 0.01z"/>
	<path d="m1637.9 1751.8c1.9-3.22 2.61-9.5-2.03-10.62-2.65-0.7-4.95 1.41-7.22 2.43-0.21 3.8 0.81 7.46 3.22 10.47 2.1-0.42 5.05 0.18 6.03-2.28z"/>
	<path d="m1644.1 1749.4c-0.388 14.222 15.415 4.721 8.95-4.68-2.148-1.563-9.438-0.563-8.95 4.68z"/>
	<path d="m1630.8 1766.9c-2.95-0.01-6.6-0.34-8.27 2.69-2.94 4.8-2.36 11.46 0.87 16.02 9.743-9.343 7.87-13.956 7.4-18.71z"/>
	<path d="m307.1 1779.9c-8.641-7.53-18.416 1.141-16.31 10.19 6.08 14.329 24.046-0.802 16.31-10.19z"/>
	<path d="m327.55 1793.4c-0.13-2.22 0.63-5.18-1.51-6.64-10.094-8.474-20.55 4.967-13.04 15.04 3.415 5.544 14.889-2.35 14.55-8.4z"/>
	<path d="m1610.1 1796.7c-3.565 0.344-10.826-2.541-8.97 9.62 1.339 5.642 12.984 6.032 8.97-9.62z"/>
	<path d="m291.74 1827.5c3.019 1.554 11.903-5.259 12.01-9.11 2.782-11.911-21.169-16.355-19.64 1.03 0.53 4.03 4.34 6.36 7.63 8.08z"/>
	<path d="m318.78 1826.7c2.24-4.56 3.4-9.83 2.02-14.81-1.55-2.46-4.38-4.15-7.3-4.08-4.38-0.7-6.87 3.77-8.95 6.85-0.67 3.35-1.78 7.81 1.72 10.02 3.21 3.51 8.32 2.33 12.51 2.02z"/>
	<path d="m321.71 1851.9c3.06-4.83 4.89-11.68 0.82-16.49-5.33-3.48-14.25 0.15-13.74 7.09-0.83 4.95 3.83 8.11 5.11 12.48 0.06 3.88-2.25 7.42-2 11.35 0.83 2.94 3.48 4.84 5.56 6.92 3.046-1.341 14.288-3.059 11.31-15.77-1.11-3.08-4.08-4.77-7.06-5.58z"/>
	<path d="m301.1 1853c1.38-4.01 2.68-8.72 0.36-12.63-4.23-3.838-19.887-1.9-15.05 12.23 2.007 5.971 13.529 4.579 14.69 0.4z"/>
	<path d="m295.12 1874.4c-1.778 9.247 12.766 25.354 20.12-0.75-6.194-10.646-17.909-5.254-20.12 0.75z"/>
	<path d="m330.49 1890.9c8.097 1.385 11.933-13.244 5.95-16.54-4.01-3.676-9.504 0.514-11.39 2.4-2.825 2.374-1.747 15.881 5.44 14.14z"/>
	<path d="m341.22 1904.8c1.53 4.72 7.47 3.57 11.34 4.07 2.54-4.55 6.2-9.78 3.89-15.15-3.948-5.626-18.385-4.918-15.23 11.08z"/>
	<path d="m327.49 1898.4c-7.108-5.012-15.651 3.009-12.11 14.06 2.29 4.49 9.13 4.62 12.39 1.16 4.62-3.55 5.23-12.24-0.28-15.22z"/>
	<path d="m367.33 1914.7c2.71 3.59 7.77 3.51 11.85 3.35 2.08-4.14 3.42-8.68 3-13.35-9.035-6.532-17.821-2.227-14.85 10z"/>
	<path d="m423.8 1921.8c5.85-3.97 4.08-14.31-2.35-16.74-2.11-0.17-4.72-0.77-6.52 0.57-8.816 7.929-1.817 24.524 8.87 16.17z"/>
	<path d="m403.36 1911.6c-1.7-2.48-5.14-1.94-7.73-1.87-11.349 0.314-5.867 15.588-3.06 23.85-3 3.4-7.37 6.79-6.91 11.85 0.02 2.47 0.12 5.82 2.86 6.89 3.33 1.2 7.76 1.3 10.37-1.49 12.219-12.144-0.77-19.314-1.77-20.18 11.153-6.565 8.379-15.891 6.24-19.05z"/>
	<path d="m339.55 1934.3c6.775 6.309 16.977-7.1 12.21-14.12-5.486-9.486-23.784 3.047-12.21 14.12z"/>
	<path d="m368.77 1928.5c-3.4 2.33-5.41 6.76-4.55 10.87 0.998 6.926 17.936 10.91 14.64-7.49-1.44-3.77-6.71-4.86-10.09-3.38z"/>
	<path d="m421.93 1930.8c-14.242 8.264-7.844 32.055 7.59 12.68 3.89-5.07-0.65-14.99-7.59-12.68z"/>
	<path d="m1532.3 2120.1c15.926-14.516-4.052-38.172-17.587-27.758-6.22 4.786-8.092 14.79-2.126 23.963 2.243 3.448 5.389 6.535 6.152 10.577-5.371 0.937-1.721-4.658-9.499-9.242-47.072-27.736-56.131 36.082-24.54 48.997 11.22 4.587 27.417 1.506 33.716-18.197 2.052-6.418 5.75-12.046 7.264-18.81 0.88-3.93 3.71-6.95 6.62-9.53z"/>
	<path d="m1536.7 2167.2c-7.311-4.311-12.394 4.749-8.954 10.873 1.373 2.445 4.134 4.138 6.93 3.937 7.347-0.529 7.419-11.628 2.024-14.81z"/>
	<path d="m1462.4 2180.6c-2.937 3.565-3.17 14.823 2.898 16.079 4.807 0.995 7.292-5.817 7.116-9.597-0.222-4.775-5.28-12.228-10.014-6.482z"/>
</svg>
